<?xml version="1.0" encoding="utf-8"?>
<!-- Generator: Adobe Illustrator 22.0.1, SVG Export Plug-In . SVG Version: 6.00 Build 0)  -->
<svg version="1.1" id="レイヤー_1" xmlns="http://www.w3.org/2000/svg" xmlns:xlink="http://www.w3.org/1999/xlink" x="0px"
	 y="0px" viewBox="0 0 672.3 288.5" style="enable-background:new 0 0 672.3 288.5;" xml:space="preserve">
<style type="text/css">
	.st0{fill:#FFFFFF;}
	.st1{fill:none;}
</style>
<g id="原画">
</g>
<g id="CLASSIC_BROWN">
</g>
<g id="N_7_">
	<g id="N_8_">
		<path class="st0" d="M618,125.7l-7.3-3.3v-0.2l4.2-53.9L583,108.8l12.1,5.9l-0.2,2.6l-21-10.6l0.1-2.4l5.1,2.7l36.3-45.8l-6.5-2.6
			l-0.2-2l16.5,6.2l-4.3,51.6l30.9-39l-4.7-2.7L647,70l18.4,9.8V80c0,0-0.3,1.5-0.3,1.9l0.8,1l-10.6-5.7L618,125.7z M611.3,122
			l6.6,3l37.2-48.6l9.4,5.1c0-0.3,0.1-0.8,0.3-1.5l-17.2-9.2l0.1,1.5l5,2.9L620.3,116l4.4-52.9l-15.4-5.7l0.1,0.8l6.9,2.8l-37,46.7
			l-4.7-2.5l-0.1,1.3l20,10.1l0.1-1.5l-12.4-6l33.4-42.4L611.3,122z"/>
	</g>
	<g id="N影_4_">
		<g>
			<path class="st0" d="M615.3,67.4l-1.4,17.1l-23,28.3c-0.3,0-8.3-3.9-8.3-3.9L615.3,67.4z"/>
			<path class="st0" d="M591,112.9L591,112.9c-0.3,0-6.5-3-8.4-3.9l-0.1-0.1l33-41.9L614,84.6l0,0L591,112.9z M582.9,108.8
				c3,1.5,7.4,3.6,8,3.8l22.9-28.2l1.4-16.6L582.9,108.8z"/>
		</g>
		<g>
			<polygon class="st0" points="574.3,106.6 594.8,116.9 594.2,127.7 574.6,117.1 			"/>
			<path class="st0" d="M594.3,127.9l-19.8-10.7v-0.1l-0.3-10.8l20.8,10.5L594.3,127.9z M574.7,117.1l19.3,10.4l0.6-10.5l-20.2-10.2
				L574.7,117.1z"/>
		</g>
		<g>
			<polygon class="st0" points="624.9,63.6 630.5,102.7 620.6,115.2 			"/>
			<path class="st0" d="M620.4,115.6l4.5-53.2l5.7,40.3l0,0L620.4,115.6z M625,64.8l-4.2,50l9.6-12.1L625,64.8z"/>
		</g>
		<g>
			<polygon class="st0" points="647.4,72.5 652.3,75.3 645.3,84 			"/>
			<path class="st0" d="M645.1,84.5l2.2-12.3l5.2,3L645.1,84.5z M647.5,72.7l-1.9,10.9l6.5-8.3L647.5,72.7z"/>
		</g>
		<g>
			<path class="st0" d="M665.1,79.9l-0.5,15.8l-8.9-4.9L620.1,138c0,0.2-0.1,0.3-0.1,0.3l-7.6-3.2l-1.3-12.9l6.9,3.2l37.2-48.5
				l9.6,5.1C664.7,82,665,79.9,665.1,79.9z"/>
			<path class="st0" d="M620,138.5l-7.8-3.2l-1.4-13.2l7,3.2L655,76.7l9.5,5.1c0.2-2,0.3-2,0.5-2h0.1l-0.5,16.1l-9-4.9L620,138.1
				C620.2,138.3,620.1,138.4,620,138.5L620,138.5z M612.5,135l7.5,3.1V138v-0.1v-0.1l35.7-47.3l8.8,4.8l0.4-13.8c0,0.1,0,0.2,0,0.3
				V82l-9.6-5.2L618,125.5l-6.8-3.1L612.5,135z"/>
		</g>
		<g>
			<polygon class="st0" points="609.2,58.3 608.5,70.5 615.9,61 			"/>
			<path class="st0" d="M608.3,70.9l0.7-12.7l7.1,2.8L608.3,70.9z M609.3,58.5L608.6,70l7.1-9L609.3,58.5z"/>
		</g>
	</g>
</g>
<g id="W_7_">
	<g id="W影_4_">
		<g>
			<polygon class="st0" points="546.1,42.7 553.5,44.2 555.3,50.1 535.7,71.6 			"/>
			<path class="st0" d="M535.3,72.2l10.6-29.7l7.7,1.6l1.8,6v0.1L535.3,72.2z M546.2,42.8L536,71.1l19.1-21l-1.7-5.7L546.2,42.8z"/>
		</g>
		<g>
			<polygon class="st0" points="550.8,76 528.1,100.6 519.3,93.9 560.7,48.1 			"/>
			<path class="st0" d="M528.1,100.7l-9-6.9l0.1-0.1L561,47.4L550.9,76L528.1,100.7z M519.5,93.8l8.6,6.5l22.7-24.5l9.6-27.2
				L519.5,93.8z"/>
		</g>
		<g>
			<polygon class="st0" points="573.3,47.4 577.9,59.6 561.7,78.2 			"/>
			<path class="st0" d="M561.3,78.8l12-31.7l4.7,12.6l-0.1,0.1L561.3,78.8z M573.3,47.8L562,77.6l15.7-18L573.3,47.8z"/>
		</g>
		<g>
			<polygon class="st0" points="579.5,50.8 584.5,52.2 579.9,57.4 			"/>
			<path class="st0" d="M579.7,57.8l-0.3-7.2l5.3,1.5L579.7,57.8z M579.7,50.9l0.3,6.2l4.3-4.8L579.7,50.9z"/>
		</g>
		<g>
			<path class="st0" d="M598.8,54.6l0.7,15.2l-9.2-3.1l-37.2,40.7c0,0.1-0.8,2-0.8,2l-9.4-7.9l45.7-48.1l10.2,2.9
				C598.7,56.5,598.7,54.6,598.8,54.6z"/>
			<path class="st0" d="M552.4,109.7l-9.7-8.1l0.1-0.1l45.7-48.1l10.1,2.9c0-1.8,0.1-1.8,0.2-1.8h0.1l0.7,15.5l-9.3-3.1l-37.1,40.7
				c-0.1,0.2-0.8,1.9-0.8,2V109.7z M543.1,101.6l9.2,7.7c0.2-0.5,0.7-1.8,0.7-1.8l0,0l37.3-40.8l9.1,3l-0.6-13l-10.2-2.9
				L543.1,101.6z"/>
		</g>
		<g>
			<polygon class="st0" points="528,37.7 534.3,39.7 530.3,53.4 			"/>
			<path class="st0" d="M530.3,54l-2.4-16.5l6.6,2.1L530.3,54z M528.2,37.9l2.2,14.9l3.8-13.1L528.2,37.9z"/>
		</g>
	</g>
	<g id="W_8_">
		<path class="st0" d="M542.7,102.2l-0.1-0.5c-0.4-2-0.4-2.1-0.3-2.2l0,0L560,49.2l-41,45.1l0.2-3.5l14.8-51l-6.2-1.9l-0.1-2.6
			l25.5,6.6l0.1,0.1c0.2,0.4,0.6,2,0.6,2.2l0.1,0.4l-7.6-1.6l-9.9,27.6L560.9,44l12.9,3.1l-0.1,0.3l-11.1,29.7l21.6-24.6l-4.7-1.4
			l-0.2-2.2l20,5.6l-0.1,2.4L588.9,54L542.7,102.2z M542.8,99.6c0,0.2,0.1,0.8,0.2,1.5l45.4-47.8l10,2.8l0.1-1.3l-18.8-5.3l0.1,1.1
			l5.2,1.5l-24,27.4l12-32l-12-2.9l-26,28.3l10.9-30.4l7.3,1.5c-0.1-0.6-0.3-1.2-0.4-1.5l-24.6-6.4l0.1,1.5l6.4,2L519.8,91l-0.1,2
			l41.8-46L542.8,99.6z"/>
	</g>
</g>
<g id="O_7_">
	<g id="O影_4_">
		<g>
			<path class="st0" d="M504.3,37.9c-1.5-2.1-8.5,4-12,13.5c-3.8,10.4-4.9,23.6,1,26.2c0.9,0.4-5,4.3-7.3,3.5
				c-5.4-1.8-7.3-20.1-4.2-31.2c2.3-8.3,10.8-18.6,16.7-19C502.4,30.7,504.3,37.9,504.3,37.9z"/>
			<path class="st0" d="M486.7,81.4c-0.3,0-0.5,0-0.8-0.1c-2.5-0.9-4.5-5.4-5.4-12.3c-0.8-6.5-0.4-13.8,1.1-19.1
				c1.1-4,3.8-8.7,7.1-12.5c3.4-4,7-6.4,9.8-6.6c0.1,0,0.1,0,0.2,0c3.8,0,5.7,6.8,5.7,7.1l0.2,0.7l-0.4-0.6c-0.2-0.3-0.5-0.4-1-0.4
				c-2.5,0.3-7.9,5.9-10.8,13.9c-3.9,10.9-4.7,23.6,0.9,26c0.1,0.1,0.2,0.2,0.1,0.4C493.1,78.8,489.1,81.4,486.7,81.4z M498.7,31.1
				c-0.1,0-0.1,0-0.2,0c-5.9,0.3-14.3,10.9-16.6,18.9c-3,10.7-1.4,29.2,4.1,31c1.6,0.6,5.4-1.4,6.7-2.7c0.5-0.4,0.5-0.6,0.5-0.6
				c-2.8-1.2-4.3-4.8-4.2-10.3c0-4.8,1.2-10.6,3.1-16.1c3-8.2,8.4-13.7,11-14c0.3,0,0.6,0,0.9,0.1C503.5,36,501.8,31.1,498.7,31.1z"
				/>
		</g>
		<g>
			<path class="st0" d="M509.8,34.1c0,0,16.4,8.4,8.7,31.9c-0.4,1.3-6.1,21.4-18.6,23.5c-14.4,2.3-19.3-7.8-19.3-7.8
				s4.5,1.2,5.5,0.8c0,0,3.2,1.3,3.4,1.3c3.9,1.4,21-5.4,24.4-21.8C517.7,44.2,509.9,34,509.8,34.1z"/>
			<path class="st0" d="M495.8,90c-5.2,0-8.8-1.7-11-3.4c-3-2.2-4.3-4.8-4.3-4.8l-0.1-0.3l0.3,0.1c1.2,0.3,4.6,1.1,5.4,0.8l0,0l0,0
				c0,0,3.2,1.3,3.4,1.3c1.5,0.5,5.3-0.2,9.6-2.5c3.6-2,12.3-7.8,14.7-19.1c3.8-17.8-3.8-27.5-4-27.8l0,0l-0.2-0.1l0.2-0.2h0.1l0,0
				c0.4,0.2,4.3,2.4,7.2,7.2c5.2,8.4,3.7,18.2,1.5,24.9c0,0.1,0,0.1-0.1,0.3c-1.7,5.5-3.7,9.5-5.1,11.9c-3.9,6.7-8.4,10.5-13.5,11.4
				C498.4,89.9,497.1,90,495.8,90z M480.9,82c0.4,0.7,1.7,2.7,4.1,4.5c2.7,2,7.5,4.2,14.9,3c5-0.8,9.5-4.6,13.3-11.2
				c1.4-2.4,3.4-6.4,5.1-11.9c0-0.1,0.1-0.2,0.1-0.3c2.2-6.7,3.7-16.4-1.5-24.7c-2.4-3.8-5.3-5.9-6.6-6.7c0.7,1,2.1,3.4,3.2,6.9
				c1.3,4.3,2.5,11.4,0.5,20.6c-2.4,11.4-11.1,17.3-14.8,19.3c-4,2.2-8,3.2-9.8,2.6c-0.2-0.1-2.9-1.2-3.3-1.3
				C485.2,83,481.9,82.2,480.9,82z"/>
		</g>
	</g>
	<g id="O_8_">
		<path class="st0" d="M489.5,84.1c-0.1,0-0.2,0-0.3,0c-0.5,0-2.7-1-3.4-1.3c-1,0.3-2.2,0-3-0.1c-0.2,0-0.3-0.1-0.4-0.1
			c-1.9-0.2-4.2-2.2-6.2-5.2c-4.8-7.6-5.6-18.4-2.1-29c2.8-8.2,13.1-20.6,22.5-20.6c0.1,0,0.1,0,0.2,0c7.8,0.1,11.1,4,12.2,5.3
			c0.1,0.1,0.1,0.1,0.2,0.2c8.1,9.1,5.6,26.2,4.8,29c-2,7.2-5.8,13-10.9,16.9C499,82.3,494.1,84.1,489.5,84.1z M485.9,82.2
			L485.9,82.2c1.5,0.7,3.1,1.4,3.4,1.4c4.5,0.1,9.5-1.7,13.6-4.8c5-3.8,8.7-9.6,10.7-16.6c0.8-2.7,3.2-19.6-4.7-28.5
			c-0.1-0.1-0.1-0.1-0.2-0.2c-1.1-1.2-4.3-5-11.8-5.1c-0.1,0-0.1,0-0.2,0c-9.2,0-19.3,12.1-22,20.2c-3.5,10.4-2.7,21.1,2,28.5
			c1.8,2.9,4,4.8,5.8,5c0.1,0,0.3,0,0.5,0.1C483.6,82.3,484.9,82.6,485.9,82.2L485.9,82.2z"/>
		<path class="st0" d="M487.1,81.3c-0.8,0-1.5-0.2-2.1-0.6c-3.1-1.9-4.3-7.1-4.8-11.2c-0.6-5.1-0.3-11.3,0.8-17
			c1.3-7.4,8-16.7,13-20.2c1.8-1.2,3.3-1.7,4.6-1.5c6.1,1.2,8.7,11.5,6.4,25.8c-1.8,11.4-9.2,21.3-15,24
			C489,81.1,488,81.3,487.1,81.3z M498,31.3c-1,0-2.3,0.5-3.7,1.5c-5,3.4-11.5,12.6-12.8,19.9c-2,11.3-1.2,24.7,3.8,27.7
			c1.1,0.7,2.7,0.6,4.5-0.2c5.7-2.6,13-12.4,14.7-23.6c2.2-14-0.2-24.1-6-25.2C498.4,31.3,498.2,31.3,498,31.3z"/>
	</g>
</g>
<g id="R_7_">
	<g id="R_8_">
		<path class="st0" d="M508.7,121.2c-0.9,0-1.8,0-2.8-0.1c-10.8-1.1-21-4.9-29.6-10.9c-9-6.4-15.4-14.9-18.6-24.6
			c-1.2-3.7-1.7-7.8-2.2-12.3c-0.9-8.4-1.9-17-8.2-21.7c-0.7-0.6-5.3-1.7-7.3-2.2l-2.5,27.5l9.7,1l0.7,2.6l-25.6-2.4l-0.1-0.1
			c-0.2-0.3-0.7-2-0.8-2.1l-0.1-0.4l5.4,0.5l5.3-52.4l-6.7-0.4l-0.1-0.1c-0.4-0.6-0.4-2.1-0.4-2.2v-0.3l32,2.8
			c1.4,0.3,3.6,1.4,5.4,3.6c1.4,1.8,3.1,4.8,2.6,9.3c-0.8,7.8-4.2,11.3-6.8,12.9c-1.9,1.1-3.7,1.4-4.7,1.5c0.9,0.5,2.4,1.4,3.2,2.1
			c4.5,4.3,6.2,11.8,8.1,20.4c1.2,5.4,2.5,11,4.5,16.4c3.8,10,9.8,17.6,17.9,22.6c6.4,4,14.1,6.1,21.7,6.1c7.4,0,12.7-2.6,15.9-4.7
			c3.4-2.3,5.1-4.5,5.1-4.6l0.2-0.2l0.2,0.2c0.2,0.1,1.6,1.5,2,2l0.2,0.2l-0.2,0.2C532,111.6,522.1,121.2,508.7,121.2z M439.6,48.8
			l0.3,0.1c0.7,0.2,6.8,1.6,7.8,2.3c6.5,4.8,7.4,13.6,8.4,22c0.5,4.4,1,8.6,2.1,12.2c3.1,9.6,9.5,18,18.4,24.3
			c8.5,6,18.6,9.7,29.3,10.8c13.5,1.4,24.1-7.9,25.6-9.3c-0.6-0.6-1.2-1.3-1.5-1.6c-0.5,0.6-2.2,2.5-5.1,4.5
			c-3.2,2.1-8.6,4.7-16.2,4.7c-0.1,0-0.2,0-0.2,0c-7.6,0-15.3-2.2-21.8-6.2c-8.2-5.1-14.3-12.8-18.1-22.9
			c-2.1-5.5-3.3-11.1-4.5-16.5c-1.9-8.6-3.6-16-8-20.2c-1.1-1-3.9-2.5-3.9-2.5l-1.1-0.6l1.2,0.1c0,0,2.7,0.1,5.4-1.5
			c3.7-2.2,6-6.5,6.6-12.4c0.8-7.7-4.8-11.7-7.5-12.3l-31.4-2.7c0,0.5,0.1,1.2,0.2,1.6l7,0.4v0.3l-5.4,53.2l-5.1-0.5
			c0.2,0.6,0.5,1.3,0.6,1.6l24.6,2.3l-0.4-1.6l-9.9-1L439.6,48.8z"/>
	</g>
	<g id="R影_4_">
		<g>
			<path class="st0" d="M422.6,78c0.1,0.1,2.4,8.1,2.5,8.2s25.6,2.7,25.8,2.6c0.1-0.1-3.1-8.5-3.2-8.4
				C447.6,80.4,422.5,77.8,422.6,78z"/>
			<path class="st0" d="M450.8,88.9c-0.5,0-2.6-0.2-12.8-1.2c-12.8-1.3-12.9-1.4-13-1.4c-0.1-0.1-0.2-0.6-1.3-4.1
				c-0.5-1.8-1.1-3.8-1.2-4v-0.1V78c0.1-0.1,0.1-0.1,12.2,1.1c5.8,0.6,12.4,1.2,12.9,1.2l0,0l0.1,0.1c0.2,0.2,1.6,3.9,1.8,4.3
				c1.6,4.2,1.5,4.2,1.4,4.3C451,88.9,450.9,88.9,450.8,88.9z M425.2,86c1.3,0.2,23.6,2.5,25.5,2.6c-0.3-1-2.7-7.6-3.1-8.2l0,0
				c-0.5,0-2.6-0.2-13-1.2c-5.3-0.5-10.8-1.1-11.9-1.1c0.1,0.4,0.4,1.4,1.2,3.9C424.5,83.7,425.1,85.7,425.2,86z"/>
		</g>
		<g>
			<path class="st0" d="M458.7,24.3c11.2,4.3,11.5,13.8,10.9,17.6c-1.5,10.7-8.4,14.9-8.4,14.4c0,0,1.1,0.8,4.5,5.8
				c4.8,7.1,6.9,33,23.4,48.1c5.4,4.9,10.3,7.5,10.3,7.5c0-0.1-5.6-1.2-12.5-5.3c-10.4-6.1-16.5-16.7-18.4-23.5
				c-4.2-15.4-3.7-13.4-7.1-27.2c-2.2-9.1-9-11.1-9-11.1s8.7,0,11.6-9.9C465.4,35.7,465.2,27.9,458.7,24.3z"/>
			<path class="st0" d="M499.5,117.8L499.5,117.8c-0.2,0-0.3-0.1-0.4-0.1c-4.2-1.2-8.3-2.9-12.2-5.2c-9.9-5.8-16.4-16-18.4-23.6
				c-1-3.8-1.8-6.5-2.4-8.7c-1.8-6.7-2.2-8.1-4.8-18.6c-2.2-8.9-8.8-11-8.9-11l-0.9-0.3h0.9l0,0c0.1,0,8.7-0.1,11.5-9.8
				c1.2-4.3,1.5-12.5-5.2-16.2l0.1-0.2c4.9,1.9,8.2,4.9,9.9,9.1c1.5,3.7,1.2,7.3,1.1,8.7c-1.3,9.3-6.8,13.9-8.2,14.5
				c0.5,0.4,1.7,1.8,4.3,5.6c1.5,2.3,2.8,6.4,4.3,11.7c3.3,11.1,7.9,26.2,19,36.4c4.9,4.5,9.5,7.1,10.2,7.4c0.2,0.1,0.2,0.1,0.2,0.1
				v0.1L499.5,117.8L499.5,117.8L499.5,117.8z M453,50.6c1.7,0.7,6.7,3.4,8.5,10.9c2.6,10.4,2.9,11.8,4.8,18.6
				c0.6,2.2,1.3,4.9,2.4,8.7c2,7.5,8.5,17.7,18.3,23.5c3.6,2.1,7.4,3.8,11.2,4.9c-1.9-1.1-5.5-3.5-9.2-6.9
				c-11.2-10.3-15.8-25.5-19.1-36.6c-1.6-5.2-2.8-9.4-4.3-11.6c-2.9-4.3-4.1-5.4-4.4-5.7c-0.1,0-0.1-0.1-0.1-0.2V56l0.2,0.1l0,0
				c0.7-0.2,6.8-4.3,8.2-14.3c0.4-2.8,0.9-12.1-9.5-16.9c5.5,4.1,5.2,11.6,4,15.7C461.7,49.1,455,50.4,453,50.6z"/>
		</g>
		<g>
			<path class="st0" d="M442.7,24.3l-2.2,21.4c0,0,14.3,3.3,14.8-10.8C455.8,23.9,442.7,24.3,442.7,24.3z"/>
			<path class="st0" d="M444,46.2c-2,0-3.5-0.3-3.5-0.3h-0.1l2.2-21.7h0.1c0.1,0,6.6-0.2,10.3,3.6c1.8,1.8,2.6,4.2,2.5,7.1
				c-0.2,4.1-1.5,7.2-4,9.1C449.1,45.8,446.2,46.2,444,46.2z M440.7,45.6c0.9,0.2,6.7,1.2,10.7-1.8c2.4-1.8,3.8-4.8,3.9-8.9
				c0.1-2.9-0.7-5.2-2.4-7c-3.3-3.4-9.1-3.5-10-3.5l0,0L440.7,45.6z"/>
		</g>
		<g>
			<polygon class="st0" points="425.5,23.1 432.4,23.5 430.4,41.9 			"/>
			<path class="st0" d="M430.5,42.7L425.4,23l7.2,0.4L430.5,42.7z M425.7,23.2l4.7,18l1.9-17.6L425.7,23.2z"/>
		</g>
		<g>
			<path class="st0" d="M452.6,58.1l-4.6-0.3l-2.1,20.1c0,0-8-0.5-8.7-0.7c0,0,2.4-27.9,2.5-27.8c4.5,1.2,7.5,1.8,7.5,1.8
				C451.4,53.9,452.6,58.1,452.6,58.1z"/>
			<path class="st0" d="M446.1,78.1L446.1,78.1c-0.4,0-8.1-0.5-8.8-0.7h-0.1v-0.1c2.4-27.8,2.5-27.9,2.6-27.9l0,0h0.1
				c4.5,1.2,7.4,1.8,7.5,1.8l0,0c4.1,2.7,5.4,7,5.4,7l0.1,0.2l-4.6-0.3L446.1,78.1z M437.5,77.1c0.9,0.2,6.2,0.6,8.4,0.7l2.1-20.1
				l4.5,0.3c-0.3-0.8-1.7-4.4-5.2-6.7c-0.3-0.1-3.1-0.7-7.3-1.8C439.7,51.1,438.2,68,437.5,77.1z"/>
		</g>
		<g>
			<path class="st0" d="M531.9,111.3l12,10.6c0,0-10.9,14.1-42.9,4.6c-20.7-6.1-36-27.8-36-27.8s15.9,22,43.7,22.2
				C521.5,121.1,531.9,111.3,531.9,111.3z"/>
			<path class="st0" d="M521.4,129.9c-7.4,0-14.7-1.6-20.4-3.2c-20.5-6-35.9-27.6-36.1-27.8l0.2-0.2c0,0.1,4.1,5.6,11.4,11
				c6.8,5,17.9,11.1,32.2,11.2c0.1,0,0.1,0,0.2,0c12.5,0,22.9-9.5,23-9.6l0.1-0.1l12.2,10.7L544,122c0,0-2.8,3.6-9.5,5.9
				C530.3,129.3,525.8,129.9,521.4,129.9z M468.7,103.2c5.7,6.7,17.7,18.9,32.3,23.2c9.1,2.7,22.3,5.1,33.4,1.2
				c6-2.1,8.8-5.1,9.3-5.7l-11.8-10.4c-1,0.9-11,9.6-23.1,9.6c-0.1,0-0.1,0-0.2,0c-14.4-0.1-25.5-6.2-32.3-11.2
				C473.2,107.5,470.6,105.2,468.7,103.2z"/>
		</g>
	</g>
</g>
<g id="B_7_">
	<g id="B_8_">
		<path class="st0" d="M386.5,71.2c-0.4,0-0.8,0-1.2-0.1h-0.1l-0.1-0.1c-0.1-0.1-0.1-0.2,1.4-15.9c0.5-5.4,1.1-10.9,1.1-11.5
			l-0.1-0.1l0.3-0.2l0.1,0.1h0.1c4.8-0.2,8.7,1.2,10.9,3.8s2.9,6.5,1.9,11.5c-1,5.2-3.5,8.8-7.5,10.8
			C391.1,70.8,388.5,71.2,386.5,71.2z M385.6,70.7c2.1,0.1,12.5,0.2,14.9-12c0.9-4.8,0.3-8.6-1.8-11.1s-5.9-3.8-10.5-3.7
			c0,0.5-0.1,1.4-0.3,3.3c-0.2,2.1-0.5,5-0.8,8.1C386.5,61.5,385.7,69.3,385.6,70.7z"/>
		<path class="st0" d="M392.4,75.1c-10.1,0-26.9-1.4-27.9-1.5h-0.3l0.3-3.6l10.8,0.6l4.3-51.2l-8.5-0.4H371c-0.1,0-0.2-0.2-1.2-3.1
			l-0.1-0.4l33.5,2.6c7.3,1.7,11.8,7.3,10.6,13.5c-1.7,9.2-6.2,11.2-8,11.7c0.3,0.2,0.6,0.5,0.9,0.7c2.2,1.8,7.3,6.8,6,14.5
			c-1,6.6-6,12.6-13.3,16C398.5,75,395.8,75.1,392.4,75.1z M364.8,73.2c3,0.2,31.1,2.5,34.4,0.9c7.1-3.4,12-9.2,13-15.6
			c1.5-9.3-6.3-14.4-7.2-15c-0.2,0-0.3-0.1-0.3-0.2c0-0.1,0-0.2,0.2-0.3c0,0,0.1,0,0.2,0c0.5,0,6.2-0.8,8.2-11.4
			c0.6-3-0.2-5.8-2.2-8.2c-1.9-2.3-4.7-3.9-8.1-4.7l-32.6-2.6c0.4,1,0.8,2.1,0.9,2.4l8.8,0.4l-4.4,52.2l-10.8-0.6L364.8,73.2z"/>
	</g>
	<g id="B影_4_">
		<g>
			<path class="st0" d="M404.4,18.8c0,0,15.8,1.1,15.4,17.1c-0.2,8.8-6.9,12.7-6.8,12.8s4.9,4.5,4.7,17.2
				c-0.2,14.2-16.2,18.1-16.1,18c0.1-0.1-31.1-2.2-31.2-2.1c-0.1,0.1-6-8.1-6-8.1c0,0.5,34.2,1.7,34.3,1.1c7.8-3.2,13-10.7,13.5-16
				c0.7-7.3-2.7-12.8-7.4-15.3c-0.1,0,3-0.4,5.5-4c2.1-3,3.7-9.1,3-11.5C411.2,20.1,404.4,18.8,404.4,18.8z"/>
			<path class="st0" d="M401.7,84L401.7,84c-1.2-0.2-29.7-2.1-31.1-2.1l0,0l0,0h-0.1c-0.1,0-0.3,0-6-8.2l-0.1-0.1v-0.4l0.2,0.4
				c1.3,0.5,32.8,1.5,34.1,1.1l0,0h0.1c7.7-3.2,12.9-10.6,13.5-15.9c0.8-7.8-3.3-13-7.3-15.2h-0.1v-0.1c0-0.1,0.1-0.1,0.2-0.1
				c2.1-0.6,3.9-1.9,5.3-3.9c2.1-3.1,3.7-9,2.9-11.4c-2.3-7.5-8.9-8.9-9-8.9v-0.3c0,0,4,0.3,7.9,2.6c3.6,2.1,7.8,6.3,7.6,14.6
				c-0.1,3.5-1.3,8.6-6.6,12.6c-0.1,0.1-0.1,0.1-0.2,0.1c1,1,4.8,5.8,4.7,17.2c-0.1,5.6-2.6,10.3-7.4,13.9c-4.2,3.1-8.5,4.2-8.6,4.2
				C401.8,84,401.8,84,401.7,84z M370.6,81.6c0.6,0,3.4,0.1,15.5,1c12.9,0.9,15.2,1.1,15.6,1.2l0,0c0.3,0,4.3-1.1,8.1-3.8
				c3.5-2.5,7.8-6.9,7.9-14.1c0.1-11.7-3.9-16.3-4.7-17.1l-0.1-0.1v-0.1c0-0.1,0.1-0.1,0.3-0.3c5.2-4,6.4-9,6.5-12.4
				c0.2-8.2-4-12.3-7.5-14.4c-2.4-1.4-4.7-2-6.2-2.3c2.2,0.9,6.1,3.2,7.7,8.6c0.7,2.4-0.8,8.5-3,11.6c-1.4,2-3.2,3.4-5.3,4
				c5.1,2.9,7.8,8.8,7.2,15.3c-0.5,5.3-5.8,12.8-13.6,16.1l0,0c-0.3,0.2-2.3,0.4-14.2,0c-7.9-0.2-15.8-0.6-18.8-0.9
				c-0.5,0-0.8-0.1-1-0.1C367.1,76.9,370.3,81.3,370.6,81.6L370.6,81.6z"/>
		</g>
		<g>
			<path class="st0" d="M400.9,55.5l-3.2-0.2l-1.1,11.6c-3.7,3.9-10.6,4.2-11.2,3.9c0,0,2.5-27.1,2.7-27.1
				C403,43,400.9,55.5,400.9,55.5z"/>
			<path class="st0" d="M386.1,71.1c-0.4,0-0.7,0-0.8-0.1h-0.1v-0.1c0-0.1,0.6-6.9,1.3-13.6c0.4-3.9,0.7-7.1,0.9-9.3
				c0.4-4.4,0.5-4.4,0.6-4.4c4.9-0.2,8.5,0.9,10.7,3.4c3.1,3.5,2.3,8.5,2.3,8.5v0.1l-3.2-0.2L396.7,67l0,0
				C393.6,70.4,388.2,71.1,386.1,71.1z M385.5,70.8c1.1,0.2,7.6-0.3,11-3.9l1.1-11.7l3.2,0.2c0.1-0.8,0.5-5.1-2.3-8.2
				c-2.1-2.4-5.6-3.5-10.4-3.3C387.9,45.2,386.3,61.9,385.5,70.8z"/>
		</g>
		<g>
			<path class="st0" d="M390.6,20.1l-2.1,21c0,0,11.4,3.7,13.8-9.1C404.9,18.1,390.6,20.1,390.6,20.1z"/>
			<path class="st0" d="M392,41.6c-2.1,0-3.6-0.5-3.6-0.5h-0.1l2.1-21.2h0.1c0.1,0,6.6-0.8,10,2.8c2,2.1,2.6,5.2,1.8,9.3
				c-0.8,4-2.5,6.8-5,8.3C395.6,41.3,393.7,41.6,392,41.6z M388.6,40.9c0.7,0.2,5,1.3,8.6-0.9c2.5-1.5,4.2-4.2,4.9-8.1
				c0.8-4,0.2-7-1.7-9c-3.1-3.3-8.9-2.8-9.7-2.7L388.6,40.9z"/>
		</g>
		<g>
			<polygon class="st0" points="371.2,18.9 379.9,19.2 378.4,36.1 			"/>
			<path class="st0" d="M378.5,36.6l-7.6-17.8l9,0.3L378.5,36.6z M371.4,19.1l7,16.5l1.4-16.2L371.4,19.1z"/>
		</g>
	</g>
</g>
<g id="C_9_">
	<g id="C影_8_">
		<g>
			<path class="st0" d="M340.8,56.3l11,4.1c-3.8,18.3-11.4,21.4-17.9,22.4c-20.4,3-31.3-13.4-31.3-13.4s11.7,17,28.7,6.9
				C344.4,68.6,340.8,56.3,340.8,56.3z"/>
			<path class="st0" d="M328.9,83.3c-8.1,0-14.4-3.1-18.4-5.9c-5.2-3.7-8-7.8-8-7.9l0.2-0.1c0,0,3,4.3,7.9,7.2
				c4.6,2.7,11.9,4.9,20.6-0.3c6.7-4,8.9-9.2,9.6-12.8c0.7-4-0.1-7-0.2-7.1l-0.1-0.2l11.4,4.2v0.1c-1.7,8.3-4.3,14.1-8,17.8
				c-3.4,3.3-7.2,4.3-10.1,4.7C332.2,83.1,330.5,83.3,328.9,83.3z M308.3,75.3c0.7,0.6,1.5,1.2,2.4,1.9c4.8,3.4,12.7,7.1,23.2,5.5
				c2.9-0.4,6.6-1.4,9.9-4.6c3.6-3.6,6.2-9.3,7.9-17.5l-10.7-4c0.2,0.8,0.7,3.6,0.1,6.9c-0.7,3.7-2.9,9-9.7,13
				c-8.8,5.2-16.2,3.1-20.9,0.3C309.7,76.3,309,75.8,308.3,75.3z"/>
		</g>
		<g>
			<polygon class="st0" points="341.2,12.4 353.8,20.8 351.2,46.8 339.5,40 			"/>
			<path class="st0" d="M351.3,47l-11.9-6.9l1.6-27.9l12.9,8.6v0.1L351.3,47z M339.7,39.9l11.4,6.6l2.6-25.7l-12.4-8.3L339.7,39.9z"
				/>
		</g>
		<g>
			<path class="st0" d="M337.8,34.2c0,0-4.6-5.9-10-4.6c-5.6,1.4-8.7,11.3-8.9,21.8C318.4,77.9,334,71.7,334,71.7
				c-0.5,0.3-22.1,16.5-25.7-20.3c-0.9-8.7,3-27.9,16.6-30.8C331.8,19.2,337.8,34.2,337.8,34.2z"/>
			<path class="st0" d="M323.3,75.7c-1.7,0-3.3-0.3-4.7-1c-5.7-2.7-9.2-10.5-10.4-23.2c-0.9-9.1,3.2-28.1,16.7-30.9
				c2.9-0.6,6,1.6,9.1,6.3c2.3,3.6,3.8,7.3,3.9,7.4l0.3,0.8l-0.6-0.7c0-0.1-4.6-5.8-9.8-4.5c-2.6,0.6-4.8,3.2-6.4,7.4
				c-1.4,3.8-2.3,8.9-2.4,14.3c-0.2,9.9,1.8,16.4,6,19.2c4.1,2.8,8.9,1,8.9,1L334,72c0,0-0.1,0.1-0.2,0.1c-1.9,1.2-3.8,2.2-5.6,2.8
				C326.5,75.4,324.9,75.7,323.3,75.7z M325.9,20.7c-0.3,0-0.6,0-0.9,0.1c-13.3,2.9-17.4,21.7-16.5,30.7c1.2,12.6,4.7,20.3,10.3,23
				c1.9,0.9,7,2.4,14.5-2.3c-1.6,0.4-5.2,0.9-8.3-1.3c-4.2-2.9-6.3-9.5-6.1-19.5c0.2-9.9,3-20.5,9-21.9c4.4-1.1,8.2,2.5,9.6,4
				C336.1,30.7,331.3,20.7,325.9,20.7z"/>
		</g>
	</g>
	<path class="st0" d="M319.5,79.9c-3.4,0-6.1-1.3-9.7-3.4c-6.8-4-13.7-13.3-13.8-25c-0.1-8.1,1.9-15.3,5.8-21.3
		c3.4-5.2,8-9.1,13.3-11.5c7.5-3.2,15.1-2.6,19.5,1.5c0.4,0.4,0.9,0.6,1.4,0.5c1-0.2,2.1-1.6,3.3-3.8c0.9-1.7,1.5-3.4,1.5-3.5
		l0.6-1.8l-1.8,28.7l-0.4-1.5c-0.1-0.2-5.6-20.1-14.5-18.1c-7.3,1.6-12.7,8.5-14.9,18.9c-2.9,13.4,0.5,28,7.6,33.4c4,3,9.1,3,14.7,0
		c3.7-2,7.3-11.5,5.3-16l-0.1-0.3l3.9-0.8l0.1,0.2c0,0.2,0.9,4.1-0.4,8.9c-1.2,4.4-4.7,10.3-14.1,13.5
		C323.7,79.5,321.5,79.9,319.5,79.9z M324.4,17.2c-2.9,0-6.1,0.7-9.2,2c-14,6.1-18.9,20.7-18.8,32.3c0.1,5.3,1.6,10.6,4.4,15.3
		c2.4,4,5.7,7.3,9.2,9.3c5.6,3.3,8.9,4.5,16.4,1.9c5.1-1.7,11.6-5.4,13.7-13.1c1.1-4,0.6-7.4,0.5-8.4l-2.8,0.6
		c1.9,5-1.7,14.3-5.6,16.4c-5.8,3.1-11,3.1-15.2-0.1c-3.7-2.7-6.4-7.8-7.8-14.4c-1.3-6.2-1.3-13.2,0-19.5
		c2.3-10.6,7.9-17.6,15.3-19.3c3.9-0.9,7.7,2.1,11.1,8.5c1.7,3.3,2.9,6.7,3.5,8.6l1.4-22.1c-0.9,2.1-2.6,5.6-4.5,6
		c-0.7,0.2-1.3,0-1.9-0.6C331.7,18.4,328.3,17.2,324.4,17.2z"/>
</g>
<g id="I_7_">
	<g id="I影_4_">
		<g>
			<polygon class="st0" points="255.5,21.7 264.2,35.7 263.7,21.1 			"/>
			<path class="st0" d="M264.4,36.1l-9.1-14.5l8.5-0.7L264.4,36.1z M255.7,21.8l8.3,13.3l-0.5-13.9L255.7,21.8z"/>
		</g>
		<g>
			<polygon class="st0" points="284.7,18 292.2,32.9 283.5,33.3 284.4,70.5 277,71 275.8,20.2 284.8,19.4 			"/>
			<path class="st0" d="M276.9,71.1V71l-1.2-50.9l9-0.8l-0.3-2l8,15.8l-8.7,0.5l0.9,37.1L276.9,71.1z M276,20.3l1.2,50.5l7.1-0.5
				l-0.9-37.2l8.5-0.4l-7.1-14l0.1,0.8L276,20.3z"/>
		</g>
		<g>
			<polygon class="st0" points="259.4,73.8 264.1,81.3 293.3,80.2 286.9,70.3 287.9,72.2 			"/>
			<path class="st0" d="M264,81.4l-4.9-7.7l28.5-1.6l-0.9-1.7l0.2-0.1l6.6,10.1L264,81.4z M259.6,73.9l4.5,7.2L293,80l-5-7.7h-0.2
				L259.6,73.9z"/>
		</g>
	</g>
	<g id="I_8_">
		<path class="st0" d="M259.3,73.9l-1.4-2l7.2-0.6l-1.6-50.1l-8.1,0.6l-0.9-1.9l30-2.4l0.5,2l-9,0.8l1.2,50.5l9.8-0.7l1.1,2.2
			L259.3,73.9z M258.4,72.1l1.1,1.5l28.2-1.6l-0.9-1.7l-9.9,0.7v-0.1L275.7,20l9-0.8l-0.3-1.5L255,20.1l0.6,1.4l8.2-0.6V21l1.6,50.5
			L258.4,72.1z"/>
	</g>
</g>
<g id="S_9_">
	<g id="S影_8_">
		<g>
			<polygon class="st0" points="240.2,14.3 250.6,24 251.8,45.9 241.4,38.8 			"/>
			<path class="st0" d="M252,46.1l-10.7-7.2L240.1,14l10.7,9.9L252,46.1z M241.5,38.8l10.2,6.9l-1.2-21.6l-10.1-9.4L241.5,38.8z"/>
		</g>
		<g>
			<path class="st0" d="M239.7,34.8c0,0-8.2-8.4-13-0.2c-3,5.1,5.2,12.7,5.2,12.7s-14.6-1.6-12.9-13.8c0.7-4.8,4.9-9.1,9.4-8.1
				C236.6,27.3,239.7,34.8,239.7,34.8z"/>
			<path class="st0" d="M232.3,47.4h-0.4c-0.1,0-7.4-0.8-11.1-5.6c-1.8-2.3-2.4-5.1-2-8.3c0.4-2.8,2-5.5,4.2-7
				c1.7-1.2,3.5-1.6,5.3-1.2c8.2,1.8,11.4,9.3,11.4,9.4l0.3,0.6l-0.5-0.5c0,0-4.2-4.2-8.2-3.7c-1.8,0.2-3.4,1.4-4.6,3.5
				c-2.9,5,5.1,12.5,5.2,12.6L232.3,47.4z M227,25.4c-1.3,0-2.6,0.4-3.8,1.3c-2.1,1.5-3.7,4.1-4.1,6.8c-0.4,3.2,0.2,5.9,1.9,8.1
				c3.1,4,9,5.2,10.5,5.4c-0.6-0.6-2.2-2.2-3.4-4.2c-2.2-3.4-2.7-6.3-1.5-8.4c1.3-2.2,2.9-3.4,4.8-3.6c2.2-0.3,4.3,0.8,5.8,1.7
				c0.9,0.6,1.6,1.2,2.1,1.6c-1-1.8-4.3-7.1-10.9-8.6C227.9,25.5,227.5,25.4,227,25.4z"/>
		</g>
		<g>
			<path class="st0" d="M241.9,52c12.8,8.2,14.9,27.6,2.2,33.3c-6.7,3-9.4-0.7-14.7,1.8c-3.9,1.8-3.5,4.4-3.5,4.4l-9.5-8.8
				c0,0,4.6-8.3,16-4.6c7.7,2.6,14.3-4.5,15.1-7.3C251.1,59.4,241.7,51.8,241.9,52z"/>
			<path class="st0" d="M226.1,91.9l-9.9-9.1v-0.1c0-0.1,4.8-8.4,16.1-4.6c2.8,0.9,5.7,0.6,8.6-0.8c3.6-1.8,5.9-4.9,6.4-6.4
				c3.1-9.9-3.4-16.8-5.5-18.7c-0.1-0.1-0.2-0.1-0.1-0.2l0.1-0.1l0.1,0.1c7,4.5,11.3,12.9,10.7,20.8c-0.4,5.8-3.6,10.5-8.6,12.7
				c-3.5,1.6-5.9,1.3-8.2,1.1c-2-0.2-4-0.4-6.5,0.8c-3.7,1.8-3.4,4.3-3.4,4.3L226.1,91.9z M216.6,82.7l9.2,8.5
				c0-0.8,0.4-2.8,3.6-4.3c2.6-1.2,4.5-1,6.6-0.8c2.3,0.2,4.6,0.5,8.1-1.1c4.9-2.2,8-6.7,8.4-12.5c0.6-7.3-3.2-15.1-9.4-19.7
				c2.6,2.8,7.3,9.2,4.5,18c-0.5,1.5-2.9,4.7-6.5,6.6c-2.9,1.5-5.9,1.8-8.8,0.8c-5.8-1.9-9.8-0.6-12.1,0.8
				C218,80.6,216.8,82.3,216.6,82.7z"/>
		</g>
	</g>
	<path class="st0" d="M216.4,82.7l-1.1-22.4l0.5,1.3c0.2,0.3,0.5,0.8,0.8,1.3c1.9,3.3,5.7,10.2,14.4,10.1c2.2,0,4.4-1.1,6-3
		c1.7-2,2.6-4.5,2.3-6.9c-0.4-4-6.1-9.3-10.6-10c-8-1.2-13.2-3.4-16-6.5c-2.4-2.7-2.5-5.7-2.6-8.3v-0.2c-0.2-5.9,3.8-14.8,13.2-16.1
		c2.6-0.4,4.6,0,6.4,0.4c1.9,0.4,3.5,0.7,5.4-0.1c3.7-1.5,4.8-6.5,4.8-6.5l0.4-1.8l1.4,24.2l-0.5,0.1c-0.4-1.7-6.1-13.9-15.4-12.7
		c-4.2,0.5-6.9,5.3-6.8,9.5v0.2c0.1,2.4,0.3,8.8,10.8,11.1c14.6,3.2,16.9,11.1,18.2,15.9c0.1,0.3,0.2,0.6,0.2,0.8
		c0.8,2.6,0.4,5.7-1,8.5c-1.2,2.3-3.7,5.4-8.7,7c-2.4,0.8-5.2,0.1-7.9-0.4c-3.1-0.7-6.2-1.4-8.8,0c-2.9,1.5-5.1,4-5.1,4.1
		L216.4,82.7z M215.8,62.8l1,18.6c0.8-0.8,2.5-2.5,4.8-3.7c2.7-1.4,6-0.7,9.2,0c2.6,0.6,5.4,1.2,7.6,0.5c4.8-1.5,7.2-4.5,8.4-6.7
		c1.4-2.6,1.7-5.7,1-8.1c-0.1-0.3-0.2-0.6-0.2-0.9c-1.3-4.6-3.5-12.4-17.8-15.5c-10.9-2.4-11.1-9.1-11.2-11.6v-0.2
		c-0.2-4.4,2.7-9.5,7.2-10c5.1-0.6,9,2.6,11.4,5.3c1.9,2.2,3.2,4.6,3.9,6.2L240,17.4c-0.6,1.7-2,4.4-4.7,5.5c-2,0.8-3.7,0.5-5.7,0.1
		c-1.7-0.3-3.7-0.7-6.2-0.4c-9.1,1.2-12.9,9.8-12.7,15.5v0.2c0.2,5.1,0.4,11.5,18.1,14.3c4.7,0.7,10.5,6.3,11,10.5
		c0.3,2.6-0.6,5.3-2.4,7.3c-1.7,2-4.1,3.1-6.4,3.2c-0.1,0-0.2,0-0.2,0c-8.9,0-12.8-7-14.7-10.4C216,63,215.9,62.9,215.8,62.8z"/>
</g>
<g id="S_3_">
	<g id="S影_7_">
		<g>
			<polygon class="st0" points="195.4,25.5 204.5,33.3 205.9,51.8 196.6,46.1 			"/>
			<path class="st0" d="M206,52.1l-9.5-5.9l-1.2-21l9.3,8.1v0.1L206,52.1z M196.7,46l9,5.6l-1.4-18.2l-8.8-7.6L196.7,46z"/>
		</g>
		<g>
			<path class="st0" d="M195.1,43c0,0-8.7-8.3-13.8,0.5c-3,5.1,4.4,12.9,4.4,12.9s-14.6-1.6-12.9-13.8c0.7-4.8,7.9-8.7,12.3-7.4
				C192.3,37.3,195.1,43,195.1,43z"/>
			<path class="st0" d="M186.1,56.6h-0.4c-0.1,0-7.4-0.8-11.1-5.6c-1.8-2.3-2.4-5.1-2-8.3c0.3-2.1,1.8-4.2,4.3-5.8
				c2.7-1.7,5.9-2.4,8.2-1.8c7.2,2.1,10.1,7.8,10.1,7.9l0.3,0.7l-0.5-0.5c0,0-4.3-4-8.5-3.5c-2,0.3-3.7,1.6-5.1,3.9
				c-2.9,5,4.4,12.7,4.4,12.7L186.1,56.6z M183.3,35.1c-1.9,0-4.2,0.7-6.2,2c-2.4,1.5-3.9,3.6-4.1,5.6c-0.4,3.2,0.2,5.9,1.9,8.1
				c3.2,4.1,9,5.2,10.5,5.4c-0.6-0.6-2-2.3-3.1-4.3c-2-3.4-2.3-6.4-1.1-8.5c1.4-2.4,3.2-3.7,5.3-4c3.4-0.5,6.8,1.9,8.1,3
				c-1-1.6-4-5.5-9.6-7.1C184.5,35.2,183.9,35.1,183.3,35.1z"/>
		</g>
		<g>
			<path class="st0" d="M197,61.6c13.9,9.2,15.7,22,4,29.6c-3.7,2.4-9.7-1.7-14.4,1.8c-3.4,2.6-2.3,7.4-2.3,7.4l-10.2-9.6
				c0.1-1.4,0.3-8.5,12.8-6.3c6.8,1.2,13.2-1.9,14.4-4.5C206.7,69,196.8,61.4,197,61.6z"/>
			<path class="st0" d="M184.6,100.8L174,90.9v-0.2c0.1-0.9,0.3-3.4,2.5-5c2.2-1.7,5.7-2.1,10.4-1.2c3.1,0.5,6.3,0.3,9.2-0.8
				c2.5-0.9,4.4-2.3,5-3.6c4.7-9.8-2.7-16.9-4.2-18.3c-0.1,0-0.1-0.1-0.1-0.2l0.1-0.1l0.1,0.1c7.5,5,11.8,11.3,11.8,17.3
				c0,4.9-2.7,9.2-7.8,12.4c-1.7,1.1-3.9,0.9-6.2,0.6c-2.8-0.3-5.6-0.7-8.1,1.2c-3.3,2.5-2.3,7.3-2.2,7.3L184.6,100.8z M174.3,90.8
				l9.9,9.3c-0.2-1.2-0.5-5,2.4-7.2c2.6-1.9,5.5-1.6,8.3-1.3c2.3,0.3,4.4,0.5,6.1-0.5c5-3.2,7.6-7.4,7.7-12.2
				c0-5.6-3.7-11.5-10.4-16.2c2.5,2.6,7.2,9.1,3.2,17.5c-1.3,2.7-7.6,5.8-14.6,4.6c-4.7-0.8-8.1-0.4-10.2,1.2
				C174.6,87.6,174.4,89.9,174.3,90.8L174.3,90.8z"/>
		</g>
	</g>
	<path class="st0" d="M174.1,91l-3.8-19.8l0.2,0.1c1.4,2,9.1,9.2,16.7,9c2.2-0.1,3.8-0.7,4.9-1.9c1.2-1.4,1.8-3.4,1.6-6.1
		c-0.5-7.4-6.3-9.6-11.1-10.1c-18.3-1.9-18.7-12.5-18.8-17.6v-0.1c-0.1-2.8,1.4-6.1,4-8.7c2.7-2.7,6.1-4.4,9.4-4.5
		c1.8-0.1,3.5,0.1,5.1,0.4c2.3,0.3,4.5,0.6,6.7,0c4.4-1.3,6.2-5.3,6.2-5.3l0.4-1l1.2,20.9l-0.5,0.1c-0.4-1.5-5.4-12-15-10.8
		c-4.9,0.6-8.6,5.3-8.5,8.9v0.2c0.1,2.4,0.3,8.8,10.8,11.1c6.8,1.5,11.8,3.9,15,7.3c2.6,2.7,3.6,5.6,4.2,8.1
		c0.8,3.2,0.4,6.3-1.2,8.8c-1.6,2.6-4.5,4.4-8.3,5.1c-2.3,0.5-4.6,0.2-6.9-0.1c-3.1-0.4-6.1-0.8-8.8,0.6c-2.8,1.5-3.4,4.4-3.4,4.4
		L174.1,91z M170.7,72.5l3.4,16.1c0.4-1.1,1.3-2.7,3.3-3.7c2.9-1.5,6.1-1.1,9.1-0.7c2.2,0.3,4.6,0.6,6.8,0.1
		c3.6-0.7,6.4-2.4,7.9-4.9c1.5-2.3,1.9-5.3,1.1-8.4c-1.4-5.7-4.8-11.9-18.8-15c-10.9-2.4-11.1-9.1-11.2-11.6v-0.2
		c-0.1-2.1,0.9-4.3,2.8-6.2c1.8-1.8,4-2.9,6.2-3.2c5.1-0.6,8.9,2,11.2,4.4c1.8,1.9,3,3.9,3.7,5.3l-1-17.3c-0.8,1.3-2.7,3.8-6.1,4.8
		c-2.3,0.7-4.5,0.4-6.9,0c-1.6-0.2-3.3-0.4-5-0.3c-6.5,0.4-13.2,6.9-13,12.7v0.1c0.1,2.5,0.2,6.4,2.5,9.8c2.8,4.1,8.1,6.5,15.8,7.3
		c7.1,0.7,11.1,4.4,11.6,10.6c0.2,2.8-0.4,5-1.7,6.5c-1.2,1.3-3,2-5.3,2.1c-0.1,0-0.2,0-0.3,0C180,80.8,173.1,75.1,170.7,72.5z"/>
</g>
<g id="A_5_">
	<g id="A影_4_">
		<g>
			<path class="st0" d="M132.7,51.7c0,0-5.8,24.3-5.9,24.7l11.5-1.7L132.7,51.7z"/>
			<path class="st0" d="M126.7,76.6v-0.2c0-0.4,5.6-23.8,5.9-24.8l0.1-0.5l5.8,23.7L126.7,76.6z M132.7,52.3
				c-1.9,8.1-5.3,22.3-5.7,24l11.2-1.7L132.7,52.3z"/>
		</g>
		<g>
			<polygon class="st0" points="122.8,47.7 127.8,57.3 130.3,46.3 			"/>
			<path class="st0" d="M127.8,57.7l-5.2-10l7.8-1.5L127.8,57.7z M123,47.8l4.7,9.1l2.4-10.5L123,47.8z"/>
		</g>
		<g>
			<path class="st0" d="M148.2,41.9l9.1,15.2l-6.1,1l8.8,36.4c0.1,0.4,1.4,1.1,1.4,1.1l-8.9,1.6l-12.3-52.4l7.9-1.3L148.2,41.9z"/>
			<path class="st0" d="M152.4,97.4v-0.1L140,44.7l7.9-1.3l0.1-2l9.4,15.8l-6.1,1l8.8,36.3c0.1,0.2,0.8,0.7,1.3,1l0.3,0.2
				L152.4,97.4z M140.3,44.9L152.5,97l8.4-1.5c-0.4-0.3-1.1-0.7-1.1-1L151,58l6-1l-8.8-14.7l-0.1,1.3L140.3,44.9z"/>
		</g>
		<g>
			<polygon class="st0" points="140.7,84.6 134.9,85.6 133.5,100.6 120.5,103.4 126.1,79.5 139.1,77.7 			"/>
			<path class="st0" d="M120.4,103.5l5.6-24.1l13.2-1.8l1.7,7.1l-5.8,1l-1.4,15L120.4,103.5z M126.2,79.6l-5.5,23.6l12.7-2.7l1.4-15
				l5.8-1l-1.6-6.6L126.2,79.6z"/>
		</g>
		<g>
			<polygon class="st0" points="110.7,107.8 115,113.4 140.5,108.4 136.4,102.5 			"/>
			<path class="st0" d="M114.9,113.5l-4.5-5.8l25.9-5.4l4.3,6.2L114.9,113.5z M110.9,107.9l4.1,5.3l25.3-4.9l-4-5.7L110.9,107.9z"/>
		</g>
		<g>
			<polygon class="st0" points="139,101.5 143.3,107.6 172.6,102.4 167.1,95 168,96.5 			"/>
			<path class="st0" d="M143.2,107.7l-4.5-6.3l29-5l-0.8-1.3l0.2-0.1l5.6,7.6h-0.2L143.2,107.7z M139.2,101.6l4.1,5.8l29-5.1
				l-4.2-5.7L139.2,101.6z"/>
		</g>
	</g>
	<path class="st0" d="M110.6,108.1l-0.1-0.1c0-0.1-0.1-0.2-0.6-2.6l-0.1-0.2l7.4-1.6L130,46.7l-7.3,1.3l-0.1-0.2
		c-0.4-1.9-0.4-2-0.4-2.1v-0.2l25.8-3.9l0.1,0.2c0,0.1,0.1,0.2,0.2,2V44l-7.8,1.3l12.2,51.9l14.2-2.5l1.1,2.4h-0.4c0,0-0.2,0-1,0.2
		c-5.1,0.9-27.4,4.8-27.6,4.9h-0.2l-1.3-2.2l6.2-1.1l-4.9-20.6L126.2,80l-5.4,23.3l14.6-3.1l1.3,2.7L110.6,108.1z M110.4,105.5
		c0.2,0.8,0.4,1.7,0.5,2l25.1-5.2l-0.8-1.8l-15,3.2l5.7-24.4l13.4-1.9l5.1,21.6l-6.1,1l0.7,1.2c2.1-0.4,22.6-4,27.4-4.8
		c0.3-0.1,0.5-0.1,0.7-0.1l-0.6-1.3l-14.3,2.5l-12.4-52.9l7.9-1.3c0-0.5-0.1-1.1-0.1-1.4l-24.9,3.8c0.1,0.3,0.2,0.9,0.3,1.5l7.6-1.3
		l-13,57.9L110.4,105.5z"/>
</g>
<g id="L_5_">
	<g id="L影_4_">
		<g>
			<path class="st0" d="M80.4,119.3l9.3,10.8c0.4,0,7.8-1.1,10-1c14,0.9,23.5,11.5,41.4,13.5c13.9,1.5,24-1.8,27-3.2
				c6.2-2.9,13.3,3.7,13.3,4.2l-1.6-29.1c0,0-2.3-1-4.5-3c-2.3-2.1-5.1-3.8-5.1-3.8l2,25.2l-5.2-4.8c-10.9,6.6-12.8,5.8-16.5,6.1
				c-19.4,1.5-38.9-15.9-53.6-16.8C93.9,117.1,80.4,119.3,80.4,119.3z"/>
			<path class="st0" d="M181.3,143.5c-0.1-0.3-2.3-2.5-5.5-3.8c-2.9-1.2-5.4-1.3-7.7-0.2c-4,1.9-14.1,4.7-27.1,3.2
				c-9.3-1-16.2-4.3-22.9-7.4c-6.1-2.9-11.8-5.6-18.5-6c-1.9-0.1-7.2,0.6-9.3,0.9c-0.4,0.1-0.7,0.1-0.7,0.1h-0.1L80,119.2h0.2
				c0.6-0.1,13.6-2.1,16.7-1.9c6.3,0.4,13.6,3.8,21.3,7.5c10,4.8,21.3,10.1,32.3,9.3c0.5,0,0.9-0.1,1.4-0.1c3-0.1,5.5-0.2,15.1-6
				l0.1-0.1l5,4.6l-2-25.1l0.2,0.1c0,0,2.8,1.7,5.1,3.8c2.1,2,4.4,2.9,4.5,2.9h0.1v0.1l1.6,29.1L181.3,143.5z M171.5,138.5
				c2.1,0,4,0.7,5.5,1.5c2.1,1.1,3.6,2.4,4.3,3.1l-1.6-28.6c-0.4-0.2-2.5-1.2-4.5-2.9c-1.9-1.8-4.1-3.2-4.8-3.7l2,25.2l-5.3-4.9
				c-9.5,5.7-12.1,5.9-15.1,6c-0.4,0-0.9,0-1.3,0.1c-11.1,0.9-22.4-4.5-32.4-9.3c-7.7-3.7-14.9-7.1-21.2-7.5
				c-2.9-0.2-14.6,1.6-16.4,1.9l9.1,10.6c0.1,0,0.3,0,0.7-0.1c2-0.3,7.4-1,9.3-0.9c6.8,0.5,12.5,3.2,18.6,6.1
				c6.7,3.1,13.6,6.4,22.8,7.4c12.9,1.4,23-1.4,27-3.2C169.2,138.7,170.3,138.5,171.5,138.5z"/>
		</g>
		<g>
			<path class="st0" d="M98,54.5l8.4,14.3l-5.6,0.6l4.3,45.4c0,0-6.3-1.2-7.9-7l-4.7-50.9l5.6-0.6L98,54.5z"/>
			<path class="st0" d="M105.3,114.9h-0.2c-0.1,0-6.4-1.3-8-7.1l-4.7-51.1l5.6-0.6l-0.2-2.3l8.8,14.9l-5.7,0.6L105.3,114.9z
				 M92.7,57l4.7,50.8c1.4,5.1,6.6,6.6,7.6,6.8l-4.3-45.4l5.5-0.6l-8-13.6l0.1,1.4L92.7,57z"/>
		</g>
		<g>
			<polygon class="st0" points="75.4,58.9 81.2,72.9 79.9,58.5 			"/>
			<path class="st0" d="M81.4,73.7l-6.2-14.9l4.7-0.4L81.4,73.7z M75.6,59.1l5.4,13l-1.3-13.3L75.6,59.1z"/>
		</g>
	</g>
	<path class="st0" d="M148.3,134.4c-10.3,0-18.6-4-27.4-8.2c-7.1-3.4-14.4-6.9-23.3-8.6c-3-0.6-17,1.8-17.2,1.9h-0.3l-0.2-2.8l0,0
		c0.1-0.2,0.1-0.2,3-0.5c1-0.1,2-0.2,2.5-0.3l-5.8-57.1l-4.4,0.4l-0.4-2.8l23.1-2.6l0.1,0.1c0.1,0.2,0.2,0.9,0.2,2.2v0.2l-5.6,0.6
		l4.8,50.7c1.1,3.2,3.6,5.3,4.9,5.8c3.2,1.3,7.1,3.2,11.2,5.1c14.2,6.9,31.9,15.4,42.2,10.8c11.5-5.2,14.1-20.1,14.2-20.3l0.3-2
		l0.2,2c0,0.2,1.9,21.8,2.1,23.5l0,0v0.4h-0.3c-0.1,0-0.2,0-0.2-0.1l-5-4.6c-8.3,5.5-12.6,5.8-16.4,6
		C149.8,134.4,149,134.4,148.3,134.4z M96.3,117c0.6,0,1.1,0,1.4,0.1c9,1.7,16.3,5.2,23.4,8.6c9.4,4.5,18.2,8.7,29.5,8.1
		c3.8-0.2,8-0.5,16.3-6l0.2-0.1l4.8,4.5c0-0.1,0-0.2,0-0.3c-0.1-0.6-0.1-1.6-0.2-2.7c-0.2-2.2-0.5-5.2-0.7-8.1
		c-0.4-4-0.7-8-0.9-10.2c-1.1,4.1-4.7,14.8-14.1,19.1c-2.1,1-4.5,1.4-7.1,1.4c-10.4,0-24.1-6.6-35.5-12.1c-4.1-2-8-3.9-11.1-5.1
		c-1.5-0.6-4.1-2.7-5.2-6.1V108l-4.9-51.3l5.6-0.6c0-0.6-0.1-1.3-0.1-1.6L75.5,57l0.2,1.8l4.4-0.4l5.9,58.2h-0.3
		c-1.8,0.2-4.5,0.5-5.3,0.6l0.1,2C82.4,118.6,92,117,96.3,117z"/>
</g>
<g id="C_3_">
	<g id="C影_7_">
		<g>
			<path class="st0" d="M68,103.1l10.2,5c-1.1,12.7-3.4,26-19.1,28c-28.4,3.6-37.9-15.2-37.9-15.2s14.4,20.6,36.4,8.5
				C70.4,122.4,68,103.1,68,103.1z"/>
			<path class="st0" d="M52,136.7c-10.8,0-18.2-3.5-22.7-6.7c-5.9-4.2-8.3-8.9-8.3-9l0.2-0.1c0,0.1,3.7,5.2,9.9,8.8
				c5.8,3.3,15,5.9,26.3-0.3c3.7-2,8.4-6.4,10-15.8c1-5.6,0.4-10.5,0.4-10.5v-0.2l10.5,5.2v0.1c-1.1,13.1-3.5,26.1-19.3,28.1
				C56.5,136.6,54.2,136.7,52,136.7z M22.4,122.8c1.3,1.8,3.5,4.5,7.1,7c5.4,3.9,14.9,8.1,29.5,6.2c15.5-2,17.9-14.8,19-27.8
				l-9.9-4.9c0.1,1,0.4,5.4-0.4,10.4c-0.9,5.2-3.5,12.3-10.2,16c-11.4,6.3-20.8,3.6-26.6,0.3C26.9,127.6,24,124.7,22.4,122.8z"/>
		</g>
		<g>
			<polygon class="st0" points="64,61.5 75.3,69.5 77.6,99.9 66.2,92.7 			"/>
			<path class="st0" d="M77.8,100.1l-11.7-7.3v-0.1l-2.2-31.5l11.6,8.2v0.1L77.8,100.1z M66.3,92.7l11.2,7l-2.3-30l-11.1-7.9
				L66.3,92.7z"/>
		</g>
		<g>
			<path class="st0" d="M63.2,86.5c0,0-5.1-6.6-10.3-6.4c-6.1,0.2-13.1,9.5-13.1,19.6c0,18.2,8.9,24.9,12.9,25.9
				c3.3,0.8,6.5-1.5,6.5-1.5s-7,6.8-15.4,4.3c-13.7-4-14.8-20.4-14.9-28.1C28.8,88.4,34.4,73.2,47.4,73
				C56.2,72.9,63.2,86.5,63.2,86.5z"/>
			<path class="st0" d="M47.5,129.1c-1.2,0-2.4-0.2-3.7-0.5c-6-1.7-10.2-6-12.6-12.7c-1.5-4.3-2.3-9.3-2.3-15.5
				c-0.1-6.5,1.5-13.2,4.4-18.1c2.4-4.2,6.8-9.2,14.3-9.3h0.1c8.7,0,15.7,13.4,15.8,13.5l-0.2,0.1c-0.1-0.1-5.1-6.6-10.2-6.4
				c-7,0.2-13,10.9-13,19.5c0,18.6,9.2,24.9,12.8,25.7c3.2,0.8,6.3-1.4,6.4-1.4l0.2,0.2C59.2,124.2,54.2,129.1,47.5,129.1z
				 M47.6,73.2h-0.1c-7.4,0.1-11.7,5.1-14.1,9.2c-2.8,4.9-4.4,11.5-4.3,18c0,6.1,0.8,11.1,2.3,15.4c2.4,6.6,6.6,10.9,12.4,12.6
				c6.3,1.8,11.9-1.7,14.2-3.4c-1.2,0.6-3.3,1.3-5.3,0.8c-3.6-0.9-13-7.2-13-26c0-4.7,1.6-9.7,4.3-13.6c2.6-3.7,6-6,9-6.1
				c2.7-0.1,5.4,1.7,7.2,3.2c1,0.8,1.8,1.6,2.3,2.3C60.5,82.1,54.6,73.2,47.6,73.2z"/>
		</g>
	</g>
	<path class="st0" d="M43.4,133.5c-6.1,0-12.3-2.8-18.7-8.3c-3.1-2.7-6.2-7-8.2-11.5c-1.8-4-3.6-10-2.3-16.4
		c1.4-6.8,3.9-12.6,7.4-17.2c3.1-4.1,6.9-7.2,11.2-9.2c7.2-3.3,15.5-3.5,21.2-0.4c0.5,0.3,1.5,0.2,2.6-0.4c2.3-1.1,5-3.9,6-8.5v-0.2
		l1.1-0.2v0.3c0.5,5.7,2.2,29.8,2.2,30l0.1,1.6l-0.6-1.4c-0.1-0.2-8.2-19.3-18.4-18.5c-7,0.6-12.5,5.3-15.6,13.3
		c-2.2,5.8-3,13.2-2.1,20.2c0.9,7.2,3.5,13.3,7.2,17.2c4.3,4.6,9.9,5.9,16.3,3.8c1.5-0.5,14.4-5.2,12.7-24.4V103l2.5-0.2v0.2
		c0,0.1,2,12.6-4.9,21.5c-4,5.1-10.1,8.1-18.1,8.9C44.6,133.4,44,133.5,43.4,133.5z M44.6,68.8c-3.8,0-7.8,0.9-11.4,2.6
		c-4.3,2-8,5.1-11.1,9.1c-3.5,4.6-5.9,10.3-7.3,17c-1.3,6.3,0.5,12.2,2.2,16.1c2,4.4,5,8.7,8,11.3c6.9,6,13.6,8.7,20.1,8.1
		c7.9-0.7,13.9-3.7,17.8-8.7c6.2-8,5-19.1,4.8-20.8l-1.5,0.1c1.6,19.4-11.6,24.2-13.1,24.7c-6.5,2.1-12.4,0.7-16.8-4
		c-3.8-4-6.4-10.2-7.4-17.5c-0.9-7-0.1-14.5,2.1-20.4c3.1-8.2,8.8-13,16-13.6c4.4-0.4,9.1,2.8,13.5,9.1c2.3,3.3,4,6.6,4.8,8.4
		c-0.4-5.2-1.6-23-2.1-28.3H63c-0.4,1.7-1.8,6.7-6.2,8.7c-1.3,0.6-2.4,0.7-3.1,0.3C51.2,69.5,48,68.8,44.6,68.8z"/>
</g>
<g>
	<path class="st0" d="M259.6,133.3c0.4,2.5,1.7,3.8,4.3,3.8c1.5,0,2.6-0.7,2.6-2.1c0-1.6-1.1-2.2-4.9-3.4c-4.5-1.4-6.8-3.3-6.8-6.7
		c0-4.1,3.3-6.6,8.2-6.6c5,0,8.1,2.2,8.8,6.4l-5.6,1c-0.2-2.6-1.4-4-3.5-4c-1.6,0-2.5,0.9-2.5,2.2c0,1.5,1.2,2.3,4.7,3.3
		c5.2,1.5,7.4,3.2,7.4,6.8c0,4.1-3.3,6.7-8.8,6.7c-5.8,0-9.1-2.3-9.7-6.9L259.6,133.3z"/>
	<path class="st0" d="M281.6,140.5h-5.8v-21.8h5.8V140.5z"/>
	<path class="st0" d="M306.2,118.7v21.8H298l-5.2-13c-0.6-1.5-1-3-1.4-4.5h-0.3c0.4,3.6,0.6,8.6,0.6,11.7v5.8h-5.1v-21.8h8.2l5.2,13
		c0.6,1.5,1.1,3,1.4,4.5h0.3c-0.4-3.6-0.6-7.4-0.6-11.1v-6.4H306.2z"/>
	<path class="st0" d="M330,133.5c-1.4,5-4.4,7.3-9.4,7.3c-7,0-10.6-3.8-10.6-11.2c0-6.9,4-11.2,10.3-11.2c5.1,0,8.5,2.5,9.3,6.9
		l-5.8,1.2c-0.3-3.1-1.5-4.4-3.8-4.4c-2.5,0-4,2.6-4,7.4c0,4.5,1.6,7.7,4.2,7.7c2.2,0,3.3-1.2,3.8-4.3L330,133.5z"/>
	<path class="st0" d="M348.3,136.7v3.8h-15v-21.8H348v3.8h-9.1v5.2h8.2v3.6h-8.2v5.5h9.4L348.3,136.7L348.3,136.7z"/>
	<path class="st0" d="M375.2,136.3v4.2h-17.1v-3c8.8-7.7,10.9-10.2,10.9-13.3c0-1.4-0.8-2.4-2.3-2.4c-1.9,0-3,1.3-3.5,4.4l-5.1-1.3
		c0.9-4.2,4-6.5,8.7-6.5c5,0,8,2.3,8,6.1c0,3.4-2.4,6-9.5,11.8L375.2,136.3L375.2,136.3z"/>
	<path class="st0" d="M394.7,129.5c0,7.6-2.5,11.2-8.6,11.2c-6.2,0-8.7-3.6-8.7-11.2c0-7.6,2.5-11.2,8.7-11.2
		C392.2,118.4,394.7,122,394.7,129.5z M388.8,129.5c0-6.1-0.6-7.9-2.6-7.9c-2.1,0-2.8,1.8-2.8,7.9c0,6.1,0.6,7.9,2.8,7.9
		C388.2,137.4,388.8,135.7,388.8,129.5z"/>
	<path class="st0" d="M412.9,137v3.5h-15.3V137h4.9v-13.6l-5.4,1.8v-3.9l8.1-2.7h2.8V137H412.9z"/>
	<path class="st0" d="M420.1,134.4c0.5,2.3,1.8,3.2,3.2,3.2c2.3,0,3.7-1.3,3.9-7.3c-0.9,1.5-2.7,2.3-5.4,2.3c-4.9,0-7.4-2.6-7.4-6.4
		c0-5.3,3.8-7.8,8.8-7.8c6,0,9.4,2.7,9.4,10.4c0,7.8-3.2,11.9-9.9,11.9c-3.7,0-6.9-1.3-7.8-5L420.1,134.4z M426.2,125.7
		c0-2.8-1.3-4.2-3-4.2c-1.6,0-2.9,1.4-2.9,4c0,2.4,1.1,3.9,3,3.9C425.6,129.5,426.2,127.7,426.2,125.7z"/>
</g>
<g>
	<path class="st0" d="M162.9,174.7c3,1.2,5.5,3.4,4.4,7c-1.5,4.7-5.8,5.6-11.1,3.9l-8.7-2.7l7.1-23l8.2,2.6c5,1.6,7.9,4.3,6.6,8.5
		c-0.9,2.9-3.3,3.9-6.4,3.6L162.9,174.7z M157.3,181.6c2.1,0.7,3.7,0.4,4.4-1.8c0.6-1.9-0.5-3.2-2.6-3.8l-3.1-1l-1.7,5.6
		L157.3,181.6z M158.9,165.4l-1.8,5.7l2.1,0.6c1.8,0.6,3.6,0.2,4.2-1.9c0.6-2-0.5-3.3-2.4-3.8L158.9,165.4z"/>
	<path class="st0" d="M187,189.8l-1,4l-15.4-4l6-23.3l15.1,3.9l-1,4l-9.3-2.4l-1.4,5.5l8.4,2.2l-1,3.9l-8.4-2.2l-1.5,5.8L187,189.8z
		"/>
	<path class="st0" d="M220.1,193c-2.5,5.1-6.1,7-11.3,5.9c-7.2-1.4-10.2-6.2-8.6-14.3c1.5-7.5,6.5-11.3,13.1-10
		c5.3,1,8.2,4.4,8.2,9.4l-6.3,0.1c0.3-3.4-0.6-5.1-3-5.6c-2.6-0.5-4.7,2-5.7,7.1c-1,4.9,0,8.7,2.7,9.2c2.3,0.4,3.6-0.7,4.8-3.9
		L220.1,193z"/>
	<path class="st0" d="M238.4,199.4l-0.7,4.3l-15.8-2.5l3.8-23.7l6.1,1l-3.1,19.5L238.4,199.4z"/>
	<path class="st0" d="M261,206.7l-6.1-0.8l-0.8-5.8l-7.9-1l-2.2,5.4l-5.6-0.7l9.6-23l9.4,1.2L261,206.7z M252.6,187.9
		c-0.2-1.1-0.3-2.2-0.3-3.4h-0.2c-0.3,1.1-0.7,2.1-1.2,3.2l-3,7.3l5.6,0.7L252.6,187.9z"/>
	<path class="st0" d="M269,199.4c0.2,2.7,1.4,4.3,4.1,4.6c1.6,0.1,2.8-0.5,2.9-2c0.2-1.7-0.9-2.5-4.8-4.2c-4.5-2-6.8-4.3-6.4-8
		c0.4-4.5,4.1-6.9,9.3-6.4c5.3,0.5,8.3,3.3,8.6,7.9l-6,0.6c0-2.9-1-4.5-3.2-4.7c-1.7-0.2-2.7,0.7-2.8,2.2c-0.2,1.6,1,2.6,4.6,4.1
		c5.3,2.1,7.5,4.3,7.1,8.2c-0.4,4.4-4.2,7-10,6.4c-6.1-0.6-9.3-3.5-9.5-8.5L269,199.4z"/>
	<path class="st0" d="M290.1,201.2c0.3,2.7,1.5,4.3,4.2,4.5c1.6,0.1,2.8-0.6,2.9-2.1c0.1-1.7-1-2.5-5-4.1c-4.6-1.8-6.9-4.1-6.6-7.8
		c0.3-4.5,3.9-7,9.1-6.7c5.3,0.3,8.4,3,8.8,7.6l-6,0.8c0-2.9-1.2-4.5-3.4-4.6c-1.7-0.1-2.7,0.8-2.8,2.3c-0.1,1.6,1.1,2.6,4.7,3.9
		c5.4,2,7.6,4,7.3,8c-0.3,4.5-4,7.1-9.8,6.7c-6.1-0.4-9.4-3.2-9.7-8.2L290.1,201.2z"/>
	<path class="st0" d="M312.7,210.4l-6.1-0.3l1-24l6.1,0.3L312.7,210.4z"/>
	<path class="st0" d="M337.8,203.3c-1.5,5.4-4.8,7.9-10.1,7.8c-7.4-0.1-11.1-4.4-10.9-12.5c0.1-7.6,4.4-12.2,11.1-12.1
		c5.4,0.1,8.9,2.9,9.7,7.8l-6.2,1.2c-0.3-3.4-1.5-4.9-3.9-5c-2.7-0.1-4.3,2.8-4.4,8c-0.1,5,1.6,8.6,4.3,8.6c2.3,0,3.5-1.3,4.1-4.7
		L337.8,203.3z"/>
	<path class="st0" d="M352.6,211.2c-2,0-3.5-1.4-3.5-3.2c0-1.8,1.4-3.3,3.4-3.3c2.5,0,3.8,1.4,3.9,3.7c0,1.6-0.7,3-1.8,5l-2.4,4.2
		h-3.1L352.6,211.2z"/>
	<path class="st0" d="M383.9,197.4c3.3,0,6.3,1.2,6.5,5c0.3,4.9-3.5,7.2-9.1,7.5l-9.1,0.5l-1.3-24l8.6-0.5c5.3-0.3,8.9,1.3,9.1,5.7
		c0.2,3.1-1.7,4.8-4.8,5.6L383.9,197.4z M376.9,190.1l0.3,6l2.2-0.1c1.9-0.1,3.4-1.1,3.3-3.2c-0.1-2.1-1.6-2.9-3.6-2.8L376.9,190.1z
		 M380.9,205.8c2.2-0.1,3.6-1,3.5-3.2c-0.1-1.9-1.6-2.8-3.8-2.7l-3.2,0.2l0.3,5.9L380.9,205.8z"/>
	<path class="st0" d="M411.7,203.5l0.3,4.1l-15.8,1.3l-2-24l15.5-1.3l0.3,4.1l-9.6,0.8l0.5,5.7l8.6-0.7l0.3,4l-8.6,0.7l0.5,6
		L411.7,203.5z"/>
	<path class="st0" d="M438.2,192.1c3.3-0.2,6.4,0.7,6.9,4.5c0.6,4.9-3,7.5-8.5,8.2l-9.1,1.2l-3.2-23.8l8.6-1.1
		c5.2-0.7,8.9,0.6,9.5,5C442.8,189.2,441,191,438.2,192.1L438.2,192.1z M430.7,185.4l0.8,5.9l2.2-0.3c1.9-0.2,3.3-1.3,3-3.4
		c-0.3-2-1.9-2.7-3.8-2.5L430.7,185.4z M435.9,200.7c2.2-0.3,3.6-1.2,3.3-3.4c-0.3-1.9-1.8-2.7-4-2.4l-3.2,0.4l0.8,5.8L435.9,200.7z
		"/>
	<path class="st0" d="M462.2,200.9l-5.3-8l-2.5,0.4l1.5,8.7l-5.9,1l-4-23.7l8.6-1.5c5.3-0.9,9.4,0.7,10.2,5.4c0.6,3.4-0.7,5.6-3,7
		l7.3,9.5L462.2,200.9z M453.8,189.2l2.1-0.4c2.3-0.4,3.6-1.6,3.1-4.1c-0.4-2.4-2-3.3-4.3-3l-2.1,0.4L453.8,189.2z"/>
	<path class="st0" d="M489.8,183.1c1.8,8.4-1.9,13-8.2,14.3s-11.5-1.3-13.3-9.8c-1.8-8.4,1.9-13,8.2-14.3
		C482.8,172,488,174.7,489.8,183.1z M483.4,184.4c-1.3-6-3.3-7.8-6.2-7.2c-2.9,0.6-4,3.1-2.7,9.1s3.3,7.8,6.2,7.2
		C483.5,192.9,484.7,190.4,483.4,184.4z"/>
	<path class="st0" d="M506.5,173.5c0.4,1.8,0.8,6.9,1,8.8l0.6,8.5l-8.4,2.3l-11.3-21.8l6.1-1.7l5.7,11.2c1.3,2.5,2.1,4.3,2.7,6.3
		l0.3-0.1c-0.3-2.1-0.5-4-0.6-6.9l-0.6-12.6l5.7-1.5l6,11.1c1.4,2.5,2.3,4.5,2.9,6.3l0.3-0.1c-0.4-1.8-0.7-4-0.9-6.8l-1.1-12.5
		l6-1.6l1.3,24.5l-8,2.2l-4-7.7c-0.8-1.5-3.1-6.2-3.6-7.9L506.5,173.5z"/>
	<path class="st0" d="M543.6,154.4l8,22.7l-8.1,2.9l-10-11.7c-1.1-1.3-2.1-2.7-3-4.2l-0.3,0.1c1.7,3.6,3.7,8.7,4.9,11.9l2.1,6
		l-5.1,1.8l-8-22.7l8.1-2.9l10,11.7c1.1,1.3,2.1,2.7,3.1,4.1l0.3-0.1c-1.7-3.6-3.3-7.5-4.7-11.3l-2.3-6.7L543.6,154.4z"/>
</g>
<g>
	<path class="st0" d="M315.7,231.3h2.3l3.6,9.5h-3l-0.3-0.9h-2.9l-0.3,0.9h-3L315.7,231.3z M314.2,239.7l0.3-0.7h4.7l0.3,0.7h0.4
		l-2.7-7.2h-0.5l-2.7,7.2H314.2z M316.8,232.8l2.2,5.8h-4.4L316.8,232.8z M317.5,237.8l-0.6-1.7l-0.6,1.7H317.5z"/>
	<path class="st0" d="M321.8,231.3h3.3c0.6,0,1.2,0.1,1.7,0.2c0.5,0.2,1,0.4,1.3,0.7c0.4,0.3,0.7,0.7,0.9,1.2c0.2,0.5,0.3,1,0.3,1.6
		c0,0.5-0.1,0.9-0.2,1.2c-0.1,0.3-0.3,0.6-0.4,0.8c-0.2,0.2-0.4,0.5-0.6,0.6l1.8,3.1h-3.6l-1.4-2.4v2.4h-3L321.8,231.3L321.8,231.3z
		 M324.7,237.5c0.4,0,0.7,0,1.1-0.1l1.4,2.3h0.4l-1.4-2.4c0.5-0.2,0.9-0.5,1.2-0.8c0.3-0.4,0.5-0.9,0.5-1.5c0-0.4-0.1-0.8-0.2-1.1
		c-0.2-0.3-0.4-0.6-0.7-0.8c-0.3-0.2-0.6-0.4-1-0.5s-0.8-0.2-1.2-0.2h-1.5v7.2h0.4v-2.2h1L324.7,237.5L324.7,237.5z M323.6,237.1
		v-4.4h1.2c0.9,0,1.5,0.2,2,0.6s0.7,0.9,0.7,1.6s-0.2,1.2-0.7,1.6s-1.2,0.6-2,0.6L323.6,237.1L323.6,237.1z M324.8,236h0.2
		c0.4,0,0.7-0.1,0.9-0.2c0.3-0.2,0.4-0.4,0.4-0.8s-0.1-0.7-0.4-0.8c-0.3-0.2-0.6-0.2-0.9-0.2h-0.2V236z"/>
	<path class="st0" d="M331.3,233.8h-1.8v-2.5h6.6v2.5h-1.8v7h-3.1L331.3,233.8L331.3,233.8z M333.1,239.7v-6.9h2v-0.3h-4.4v0.3h2
		v6.9H333.1z"/>
	<path class="st0" d="M336.7,231.3h3.2v9.5h-3.2V231.3z M338.5,239.7v-7.2h-0.4v7.2H338.5z"/>
	<path class="st0" d="M340.7,236c0-0.8,0.1-1.4,0.4-2.1c0.3-0.6,0.6-1.1,1.1-1.6c0.5-0.4,1-0.8,1.6-1s1.3-0.3,1.9-0.3
		c0.5,0,1,0.1,1.4,0.2s0.8,0.2,1.1,0.4c0.4,0.2,0.7,0.3,0.9,0.5l-1.5,2.6c-0.2-0.1-0.3-0.2-0.5-0.3c-0.2-0.1-0.4-0.1-0.6-0.2
		c-0.2-0.1-0.5-0.1-0.8-0.1s-0.6,0.1-0.8,0.2s-0.5,0.2-0.6,0.4c-0.2,0.2-0.3,0.4-0.4,0.6c-0.1,0.2-0.2,0.5-0.2,0.8s0.1,0.5,0.2,0.8
		c0.1,0.2,0.3,0.5,0.4,0.6c0.2,0.2,0.4,0.3,0.7,0.4s0.5,0.2,0.8,0.2s0.6,0,0.8-0.1s0.4-0.2,0.6-0.3c0.2-0.1,0.4-0.2,0.5-0.4l1.5,2.6
		c-0.3,0.2-0.6,0.4-0.9,0.6c-0.3,0.1-0.7,0.3-1.1,0.4c-0.4,0.1-0.9,0.2-1.5,0.2c-0.7,0-1.4-0.1-2.1-0.4c-0.6-0.2-1.2-0.6-1.6-1
		c-0.5-0.4-0.8-1-1.1-1.6C340.9,237.5,340.7,236.8,340.7,236z M342.5,236c0-0.5,0.1-0.9,0.2-1.3s0.4-0.7,0.7-1s0.6-0.5,1-0.7
		s0.9-0.3,1.4-0.3c0.2,0,0.5,0,0.7,0s0.4,0.1,0.5,0.1c0.2,0,0.3,0.1,0.4,0.2l0.2-0.3c-0.2-0.1-0.3-0.1-0.5-0.2
		c-0.2,0-0.3-0.1-0.6-0.1c-0.2,0-0.5-0.1-0.7-0.1c-0.5,0-0.9,0.1-1.4,0.3c-0.4,0.2-0.8,0.4-1.2,0.7c-0.3,0.3-0.6,0.7-0.8,1.2
		s-0.3,1-0.3,1.5c0,0.6,0.1,1.1,0.3,1.5s0.5,0.8,0.8,1.1c0.3,0.3,0.7,0.6,1.2,0.7c0.5,0.2,0.9,0.3,1.5,0.3c0.3,0,0.5,0,0.8-0.1
		c0.2,0,0.4-0.1,0.6-0.2c0.2-0.1,0.3-0.1,0.5-0.2l-0.2-0.3c-0.1,0.1-0.3,0.2-0.4,0.2c-0.1,0.1-0.3,0.1-0.5,0.1s-0.4,0.1-0.7,0.1
		c-0.5,0-1-0.1-1.4-0.3c-0.4-0.2-0.8-0.4-1.1-0.7c-0.3-0.3-0.5-0.6-0.7-1C342.6,236.9,342.5,236.5,342.5,236z"/>
	<path class="st0" d="M349.7,231.3h3.2v7h2.6v2.5h-5.8V231.3z M354.7,239.7v-0.3h-3.2v-6.9h-0.4v7.2L354.7,239.7L354.7,239.7z"/>
	<path class="st0" d="M356,231.3h5.6v2.5H359v1.1h2.5v2.4H359v1.1h2.7v2.5H356V231.3z M360.6,239.7v-0.3h-2.8v-3.1h2.7V236h-2.7
		v-3.1h2.8v-0.3h-3.2v7.2h3.2V239.7z"/>
	<path class="st0" d="M366.9,236.2c0.2-0.4,0.3-0.7,0.4-0.9c0.1-0.2,0.1-0.4,0.1-0.5c0-0.6-0.4-1-1.2-1c-0.1,0-0.1,0-0.2,0
		c-0.1,0-0.1,0-0.2,0c0,0-0.1,0-0.2,0v-2.6c0.1,0,0.3-0.1,0.4-0.1c0.1,0,0.2,0,0.3,0s0.2,0,0.3,0s0.2,0,0.4,0c0.5,0,0.9,0,1.3,0.1
		c0.4,0.1,0.8,0.3,1.2,0.5s0.6,0.5,0.9,0.9c0.2,0.4,0.3,0.8,0.3,1.4c0,0.3,0,0.5-0.1,0.8s-0.1,0.5-0.3,0.8c-0.1,0.3-0.3,0.6-0.5,1
		s-0.4,0.8-0.6,1.3l-0.2,0.4h1.8l-0.8,2.5h-5.5L366.9,236.2z M369.3,239.7l0.1-0.3h-2.3l1.6-3c0.2-0.3,0.3-0.7,0.4-1
		c0.1-0.3,0.2-0.6,0.2-1c0-0.6-0.2-1.1-0.6-1.4c-0.4-0.3-0.9-0.5-1.6-0.5H367c0,0,0,0-0.1,0l0,0v0.3l0,0c0,0,0,0,0.1,0
		c0,0,0,0,0.1,0c0.5,0,1,0.1,1.3,0.4s0.5,0.7,0.5,1.2c0,0.3,0,0.5-0.1,0.8s-0.2,0.6-0.4,0.9l-1.9,3.5h2.8L369.3,239.7L369.3,239.7z"
		/>
	<path class="st0" d="M371.2,238.3c0.7,0,1.3-0.1,1.6-0.4c0.4-0.3,0.6-0.6,0.6-1c0-0.3-0.1-0.5-0.2-0.7s-0.3-0.3-0.6-0.4
		s-0.5-0.2-0.8-0.2s-0.5,0-0.8,0l1.7-4.2h3.9v2.7h-1.8c0.2,0.1,0.3,0.2,0.4,0.3c0.1,0.1,0.3,0.3,0.4,0.4c0.2,0.3,0.4,0.6,0.6,0.9
		c0.2,0.4,0.3,0.8,0.3,1.3c0,0.7-0.1,1.3-0.4,1.8c-0.3,0.5-0.7,0.9-1.1,1.2c-0.5,0.3-1,0.6-1.6,0.7c-0.6,0.2-1.2,0.2-1.8,0.2
		c-0.1,0-0.2,0-0.3,0h-0.1L371.2,238.3L371.2,238.3z M372.1,239.8c0.3,0,0.6-0.1,0.9-0.2c0.3-0.1,0.7-0.3,1-0.5s0.6-0.5,0.8-0.9
		s0.3-0.8,0.3-1.3s-0.1-0.9-0.3-1.2c-0.2-0.3-0.4-0.6-0.7-0.8c-0.3-0.2-0.6-0.4-0.9-0.5l0.7-1.7h1.8v-0.3h-2l-0.9,2.3
		c0.4,0.1,0.7,0.2,1,0.4c0.2,0.2,0.5,0.4,0.7,0.7c0.2,0.3,0.3,0.7,0.3,1.2s-0.1,0.9-0.3,1.2c-0.2,0.3-0.4,0.6-0.7,0.7
		c-0.3,0.2-0.6,0.3-0.9,0.4c-0.3,0.1-0.5,0.1-0.7,0.1L372.1,239.8L372.1,239.8z"/>
	<path class="st0" d="M376.9,238.4h3v2.4h-3V238.4z M379.1,239.8v-0.3h-1.3v0.3H379.1z"/>
	<path class="st0" d="M380.7,238.3c0.7,0,1.3-0.1,1.6-0.4c0.4-0.3,0.6-0.6,0.6-1c0-0.3-0.1-0.5-0.2-0.7s-0.3-0.3-0.6-0.4
		s-0.5-0.2-0.8-0.2s-0.5,0-0.8,0l1.7-4.2h3.9v2.7h-1.8c0.2,0.1,0.3,0.2,0.4,0.3c0.1,0.1,0.3,0.3,0.4,0.4c0.2,0.3,0.4,0.6,0.6,0.9
		c0.2,0.4,0.3,0.8,0.3,1.3c0,0.7-0.1,1.3-0.4,1.8c-0.3,0.5-0.7,0.9-1.1,1.2c-0.5,0.3-1,0.6-1.6,0.7c-0.6,0.2-1.2,0.2-1.8,0.2
		c-0.1,0-0.2,0-0.3,0h-0.1L380.7,238.3L380.7,238.3z M381.6,239.8c0.3,0,0.6-0.1,0.9-0.2c0.3-0.1,0.7-0.3,1-0.5s0.6-0.5,0.8-0.9
		s0.3-0.8,0.3-1.3s-0.1-0.9-0.3-1.2c-0.2-0.3-0.4-0.6-0.7-0.8c-0.3-0.2-0.6-0.4-0.9-0.5l0.7-1.7h1.8v-0.3h-2l-0.9,2.3
		c0.4,0.1,0.7,0.2,1,0.4c0.2,0.2,0.5,0.4,0.7,0.7c0.2,0.3,0.3,0.7,0.3,1.2s-0.1,0.9-0.3,1.2c-0.2,0.3-0.4,0.6-0.7,0.7
		c-0.3,0.2-0.6,0.3-0.9,0.4c-0.3,0.1-0.5,0.1-0.7,0.1L381.6,239.8L381.6,239.8z"/>
	<path class="st0" d="M386.5,238.4h3v2.4h-3V238.4z M388.7,239.8v-0.3h-1.3v0.3H388.7z"/>
	<path class="st0" d="M102.5,248.4h2.3l3.6,9.5h-3l-0.3-0.9h-2.9l-0.3,0.9h-3L102.5,248.4z M101.1,256.7l0.3-0.7h4.7l0.3,0.7h0.4
		l-2.7-7.2h-0.5l-2.7,7.2H101.1z M103.7,249.9l2.2,5.8h-4.4L103.7,249.9z M104.3,254.9l-0.6-1.7l-0.6,1.7H104.3z"/>
	<path class="st0" d="M108.6,248.4h2.5l2.6,3.7v-3.7h3v9.5h-2.5l-2.6-3.6v3.6h-3V248.4z M110.3,256.7v-6.6l4.7,6.6h0.4v-7.2H115v6.6
		l-4.7-6.6H110v7.2H110.3z"/>
	<path class="st0" d="M117.7,257.9v-9.5h2.6c0.9,0,1.7,0.1,2.4,0.3c0.7,0.2,1.3,0.5,1.8,0.9s0.8,0.9,1.1,1.5
		c0.3,0.6,0.4,1.3,0.4,2.1c0,0.8-0.1,1.5-0.4,2.1s-0.6,1.1-1.1,1.5s-1.1,0.7-1.8,0.9c-0.7,0.2-1.5,0.3-2.4,0.3L117.7,257.9
		L117.7,257.9z M119.2,256.7h1.2c1.4,0,2.4-0.3,3.1-0.9s1.1-1.5,1.1-2.7c0-1.1-0.4-2-1.1-2.7c-0.7-0.6-1.8-0.9-3.1-0.9h-1.2V256.7z
		 M119.5,256.4v-6.5h0.8c1.2,0,2.1,0.3,2.8,0.8c0.7,0.5,1,1.4,1,2.4c0,1.1-0.3,1.9-1,2.5s-1.6,0.8-2.8,0.8L119.5,256.4L119.5,256.4z
		 M120.8,255.2c0.7,0,1.3-0.2,1.7-0.5c0.4-0.3,0.6-0.9,0.6-1.5c0-0.7-0.2-1.2-0.6-1.5s-0.9-0.5-1.7-0.5V255.2z"/>
	<path class="st0" d="M132.4,248.4h2.3l3.6,9.5h-3L135,257h-2.9l-0.3,0.9h-3L132.4,248.4z M131,256.7l0.3-0.7h4.7l0.3,0.7h0.4
		l-2.7-7.2h-0.5l-2.7,7.2H131z M133.6,249.9l2.2,5.8h-4.4L133.6,249.9z M134.2,254.9l-0.6-1.7l-0.6,1.7H134.2z"/>
	<path class="st0" d="M138.5,248.4h3.2v7h2.6v2.5h-5.8L138.5,248.4L138.5,248.4z M143.5,256.7v-0.3h-3.2v-6.9H140v7.2L143.5,256.7
		L143.5,256.7z"/>
	<path class="st0" d="M144.6,254.9c0.2,0.1,0.4,0.1,0.7,0.2c0.2,0,0.4,0.1,0.6,0.1s0.5,0,0.7,0c0.4,0,0.7-0.2,0.7-0.5
		c0-0.1-0.1-0.2-0.2-0.4c-0.1-0.1-0.3-0.3-0.5-0.4c-0.2-0.2-0.4-0.3-0.7-0.5c-0.2-0.2-0.5-0.4-0.7-0.7c-0.2-0.2-0.4-0.5-0.5-0.8
		s-0.2-0.7-0.2-1.1s0.1-0.8,0.2-1.2c0.2-0.3,0.4-0.6,0.7-0.9c0.3-0.2,0.6-0.4,1-0.5s0.8-0.2,1.2-0.2c0.2,0,0.5,0,0.7,0
		s0.4,0,0.6,0.1c0.2,0,0.4,0.1,0.6,0.1v2.7c-0.1,0-0.2,0-0.3,0c-0.1,0-0.2,0-0.3,0c-0.1,0-0.2,0-0.3,0c-0.1,0-0.1,0-0.2,0
		s-0.2,0-0.2,0c-0.1,0-0.1,0.1-0.2,0.1s-0.1,0.1-0.1,0.2s0.1,0.2,0.2,0.3c0.1,0.1,0.3,0.2,0.5,0.4c0.2,0.2,0.4,0.3,0.6,0.5
		s0.4,0.4,0.6,0.7c0.2,0.3,0.3,0.5,0.5,0.9c0.1,0.3,0.2,0.7,0.2,1.1s-0.1,0.8-0.2,1.2c-0.1,0.4-0.3,0.7-0.6,1
		c-0.3,0.3-0.6,0.5-1.1,0.6c-0.4,0.2-1,0.2-1.6,0.2c-0.4,0-0.7,0-1,0s-0.6-0.1-0.8-0.1c-0.3,0-0.5-0.1-0.8-0.2v-2.9L144.6,254.9
		L144.6,254.9z M145.8,256.6c0.1,0,0.3,0.1,0.4,0.1s0.3,0,0.4,0s0.3,0,0.4,0c0.3,0,0.5,0,0.8-0.1s0.5-0.2,0.7-0.3
		c0.2-0.1,0.4-0.3,0.5-0.5s0.2-0.5,0.2-0.8s-0.1-0.5-0.2-0.8c-0.1-0.2-0.3-0.5-0.5-0.7s-0.4-0.4-0.7-0.7c-0.2-0.2-0.5-0.4-0.7-0.6
		s-0.4-0.4-0.5-0.6s-0.2-0.4-0.2-0.7c0-0.3,0.1-0.6,0.3-0.8c0.2-0.2,0.6-0.3,1.1-0.3c0.1,0,0.2,0,0.2,0c0.1,0,0.2,0,0.2,0
		c0.1,0,0.2,0,0.2,0v-0.4c-0.1,0-0.1,0-0.2,0s-0.1,0-0.2,0s-0.2,0-0.2,0c-0.5,0-0.9,0.1-1.3,0.3c-0.3,0.2-0.5,0.6-0.5,1.1
		c0,0.3,0.1,0.5,0.2,0.7s0.3,0.5,0.5,0.7s0.4,0.4,0.7,0.6s0.5,0.4,0.7,0.6s0.4,0.4,0.5,0.7c0.1,0.2,0.2,0.5,0.2,0.7
		c0,0.5-0.2,0.8-0.5,1s-0.7,0.4-1.3,0.4c-0.3,0-0.6,0-0.9-0.1c-0.1,0-0.3,0-0.4-0.1L145.8,256.6L145.8,256.6z"/>
	<path class="st0" d="M151,253.1c0-0.7,0.1-1.3,0.4-1.9s0.6-1.1,1.1-1.6s1-0.8,1.6-1.1c0.6-0.3,1.3-0.4,1.9-0.4
		c0.7,0,1.3,0.1,1.9,0.4s1.1,0.6,1.6,1.1s0.8,1,1.1,1.6c0.3,0.6,0.4,1.3,0.4,1.9c0,0.7-0.1,1.3-0.4,1.9s-0.6,1.1-1.1,1.6
		s-1,0.8-1.6,1.1c-0.6,0.3-1.3,0.4-1.9,0.4c-0.7,0-1.3-0.1-1.9-0.4s-1.1-0.6-1.6-1.1s-0.8-1-1.1-1.6
		C151.2,254.5,151,253.8,151,253.1z M152.4,253.1c0,0.5,0.1,1,0.3,1.4c0.2,0.4,0.5,0.8,0.8,1.2c0.3,0.3,0.7,0.6,1.2,0.8
		c0.4,0.2,0.9,0.3,1.4,0.3s1-0.1,1.4-0.3c0.4-0.2,0.8-0.5,1.2-0.8c0.3-0.3,0.6-0.7,0.8-1.2c0.2-0.4,0.3-0.9,0.3-1.4s-0.1-1-0.3-1.4
		c-0.2-0.4-0.5-0.8-0.8-1.2c-0.3-0.3-0.7-0.6-1.2-0.8c-0.4-0.2-0.9-0.3-1.4-0.3s-1,0.1-1.4,0.3c-0.4,0.2-0.8,0.5-1.2,0.8
		c-0.3,0.3-0.6,0.7-0.8,1.2S152.4,252.6,152.4,253.1z M156,256.4c-0.5,0-0.9-0.1-1.3-0.3c-0.4-0.2-0.7-0.4-1-0.7
		c-0.3-0.3-0.5-0.6-0.7-1s-0.3-0.8-0.3-1.3s0.1-0.9,0.3-1.3s0.4-0.7,0.7-1c0.3-0.3,0.6-0.5,1-0.7s0.8-0.3,1.3-0.3s0.9,0.1,1.3,0.3
		c0.4,0.2,0.7,0.4,1,0.7c0.3,0.3,0.5,0.6,0.7,1s0.3,0.8,0.3,1.3s-0.1,0.9-0.3,1.3c-0.2,0.4-0.4,0.7-0.7,1c-0.3,0.3-0.6,0.5-1,0.7
		C156.9,256.3,156.5,256.4,156,256.4z M154,253.1c0,0.3,0.1,0.5,0.2,0.8c0.1,0.2,0.2,0.5,0.4,0.6c0.2,0.2,0.4,0.3,0.6,0.4
		s0.5,0.2,0.8,0.2s0.5-0.1,0.8-0.2c0.2-0.1,0.5-0.2,0.6-0.4c0.2-0.2,0.3-0.4,0.4-0.6s0.2-0.5,0.2-0.8s-0.1-0.5-0.2-0.8
		c-0.1-0.2-0.2-0.5-0.4-0.6c-0.2-0.2-0.4-0.3-0.6-0.4s-0.5-0.2-0.8-0.2s-0.5,0.1-0.8,0.2c-0.2,0.1-0.5,0.2-0.6,0.4
		c-0.2,0.2-0.3,0.4-0.4,0.6C154.1,252.6,154,252.9,154,253.1z"/>
	<path class="st0" d="M162.2,255.5h2.7l-1.2,3.8h-2.4L162.2,255.5z M162.5,258.8h0.3l0.8-2.7h-0.4L162.5,258.8z"/>
	<path class="st0" d="M171.4,248.4h2.3l3.6,9.5h-3L174,257h-2.9l-0.3,0.9h-3L171.4,248.4z M169.9,256.7l0.3-0.7h4.7l0.3,0.7h0.4
		l-2.7-7.2h-0.5l-2.7,7.2H169.9z M172.5,249.9l2.2,5.8h-4.4L172.5,249.9z M173.1,254.9l-0.6-1.7l-0.6,1.7H173.1z"/>
	<path class="st0" d="M177.5,248.4h3.2v7h2.6v2.5h-5.8L177.5,248.4L177.5,248.4z M182.4,256.7v-0.3h-3.2v-6.9h-0.4v7.2L182.4,256.7
		L182.4,256.7z"/>
	<path class="st0" d="M183.7,248.4h3.2v7h2.6v2.5h-5.8L183.7,248.4L183.7,248.4z M188.7,256.7v-0.3h-3.2v-6.9h-0.4v7.2L188.7,256.7
		L188.7,256.7z"/>
	<path class="st0" d="M200.3,252c0,0.7-0.1,1.2-0.3,1.7c-0.2,0.5-0.5,0.8-0.9,1.1c-0.4,0.3-0.9,0.5-1.4,0.6s-1.1,0.2-1.7,0.2v2.3h-3
		v-9.5h3c0.6,0,1.2,0.1,1.7,0.2s1,0.3,1.4,0.6c0.4,0.3,0.7,0.7,0.9,1.1C200.1,250.8,200.3,251.3,200.3,252z M198.9,252
		c0-0.4-0.1-0.8-0.2-1.1c-0.1-0.3-0.4-0.6-0.6-0.8c-0.3-0.2-0.6-0.3-0.9-0.4c-0.4-0.1-0.8-0.1-1.2-0.1h-1.6v7.2h0.4v-2.3h1.2
		c0.4,0,0.8-0.1,1.2-0.1c0.4-0.1,0.7-0.2,0.9-0.4c0.3-0.2,0.5-0.5,0.6-0.8C198.8,252.8,198.9,252.4,198.9,252z M198.5,252
		c0,0.4-0.1,0.8-0.2,1c-0.1,0.3-0.3,0.5-0.6,0.7c-0.2,0.2-0.5,0.3-0.8,0.3c-0.3,0.1-0.6,0.1-1,0.1h-1.2v-4.3h1.2c0.3,0,0.7,0,1,0.1
		s0.6,0.2,0.8,0.3c0.2,0.2,0.4,0.4,0.6,0.7C198.4,251.3,198.5,251.6,198.5,252z M195.9,253.1h0.1c0.4,0,0.7-0.1,0.9-0.3
		c0.2-0.2,0.3-0.4,0.3-0.8c0-0.3-0.1-0.6-0.3-0.8c-0.2-0.2-0.5-0.3-0.9-0.3h-0.1V253.1z"/>
	<path class="st0" d="M201,248.4h5.6v2.5H204v1.1h2.5v2.4H204v1.1h2.7v2.5H201V248.4z M205.6,256.7v-0.3h-2.8v-3.1h2.7V253h-2.7
		v-3.1h2.8v-0.3h-3.2v7.2h3.2V256.7z"/>
	<path class="st0" d="M207.3,253.1c0-0.7,0.1-1.3,0.4-1.9s0.6-1.1,1.1-1.6s1-0.8,1.6-1.1c0.6-0.3,1.3-0.4,1.9-0.4s1.3,0.1,1.9,0.4
		s1.1,0.6,1.6,1.1s0.8,1,1.1,1.6c0.3,0.6,0.4,1.3,0.4,1.9c0,0.7-0.1,1.3-0.4,1.9s-0.6,1.1-1.1,1.6s-1,0.8-1.6,1.1
		c-0.6,0.3-1.3,0.4-1.9,0.4s-1.3-0.1-1.9-0.4s-1.1-0.6-1.6-1.1s-0.8-1-1.1-1.6C207.4,254.5,207.3,253.8,207.3,253.1z M208.7,253.1
		c0,0.5,0.1,1,0.3,1.4c0.2,0.4,0.5,0.8,0.8,1.2c0.3,0.3,0.7,0.6,1.2,0.8c0.4,0.2,0.9,0.3,1.4,0.3s1-0.1,1.4-0.3
		c0.4-0.2,0.8-0.5,1.2-0.8c0.3-0.3,0.6-0.7,0.8-1.2c0.2-0.4,0.3-0.9,0.3-1.4s-0.1-1-0.3-1.4c-0.2-0.4-0.5-0.8-0.8-1.2
		c-0.3-0.3-0.7-0.6-1.2-0.8c-0.4-0.2-0.9-0.3-1.4-0.3s-1,0.1-1.4,0.3c-0.4,0.2-0.8,0.5-1.2,0.8c-0.3,0.3-0.6,0.7-0.8,1.2
		C208.7,252.2,208.7,252.6,208.7,253.1z M212.3,256.4c-0.5,0-0.9-0.1-1.3-0.3c-0.4-0.2-0.7-0.4-1-0.7c-0.3-0.3-0.5-0.6-0.7-1
		s-0.3-0.8-0.3-1.3s0.1-0.9,0.3-1.3c0.2-0.4,0.4-0.7,0.7-1c0.3-0.3,0.6-0.5,1-0.7s0.8-0.3,1.3-0.3s0.9,0.1,1.3,0.3
		c0.4,0.2,0.7,0.4,1,0.7c0.3,0.3,0.5,0.6,0.7,1s0.3,0.8,0.3,1.3s-0.1,0.9-0.3,1.3c-0.2,0.4-0.4,0.7-0.7,1c-0.3,0.3-0.6,0.5-1,0.7
		C213.2,256.3,212.8,256.4,212.3,256.4z M210.3,253.1c0,0.3,0.1,0.5,0.2,0.8c0.1,0.2,0.2,0.5,0.4,0.6c0.2,0.2,0.4,0.3,0.6,0.4
		s0.5,0.2,0.8,0.2s0.5-0.1,0.8-0.2c0.2-0.1,0.5-0.2,0.6-0.4c0.2-0.2,0.3-0.4,0.4-0.6s0.2-0.5,0.2-0.8s-0.1-0.5-0.2-0.8
		c-0.1-0.2-0.2-0.5-0.4-0.6c-0.2-0.2-0.4-0.3-0.6-0.4s-0.5-0.2-0.8-0.2s-0.5,0.1-0.8,0.2c-0.2,0.1-0.5,0.2-0.6,0.4
		c-0.2,0.2-0.3,0.4-0.4,0.6C210.4,252.6,210.3,252.9,210.3,253.1z"/>
	<path class="st0" d="M225.5,252c0,0.7-0.1,1.2-0.3,1.7c-0.2,0.5-0.5,0.8-0.9,1.1c-0.4,0.3-0.9,0.5-1.4,0.6s-1.1,0.2-1.7,0.2v2.3h-3
		v-9.5h3c0.6,0,1.2,0.1,1.7,0.2s1,0.3,1.4,0.6c0.4,0.3,0.7,0.7,0.9,1.1C225.4,250.8,225.5,251.3,225.5,252z M224.1,252
		c0-0.4-0.1-0.8-0.2-1.1c-0.1-0.3-0.4-0.6-0.6-0.8c-0.3-0.2-0.6-0.3-0.9-0.4c-0.4-0.1-0.8-0.1-1.2-0.1h-1.6v7.2h0.4v-2.3h1.2
		c0.4,0,0.8-0.1,1.2-0.1c0.4-0.1,0.7-0.2,0.9-0.4c0.3-0.2,0.5-0.5,0.6-0.8C224,252.8,224.1,252.4,224.1,252z M223.7,252
		c0,0.4-0.1,0.8-0.2,1c-0.1,0.3-0.3,0.5-0.6,0.7c-0.2,0.2-0.5,0.3-0.8,0.3c-0.3,0.1-0.6,0.1-1,0.1h-1.2v-4.3h1.2c0.3,0,0.7,0,1,0.1
		s0.6,0.2,0.8,0.3c0.2,0.2,0.4,0.4,0.6,0.7C223.6,251.3,223.7,251.6,223.7,252z M221.1,253.1h0.1c0.4,0,0.7-0.1,0.9-0.3
		c0.2-0.2,0.3-0.4,0.3-0.8c0-0.3-0.1-0.6-0.3-0.8c-0.2-0.2-0.5-0.3-0.9-0.3h-0.1V253.1z"/>
	<path class="st0" d="M226.2,248.4h3.2v7h2.6v2.5h-5.8L226.2,248.4L226.2,248.4z M231.2,256.7v-0.3H228v-6.9h-0.4v7.2L231.2,256.7
		L231.2,256.7z"/>
	<path class="st0" d="M232.5,248.4h5.6v2.5h-2.6v1.1h2.5v2.4h-2.5v1.1h2.7v2.5h-5.7V248.4z M237.1,256.7v-0.3h-2.8v-3.1h2.7V253
		h-2.7v-3.1h2.8v-0.3h-3.2v7.2h3.2V256.7z"/>
	<path class="st0" d="M241.6,254.9c0.2,0.1,0.4,0.1,0.7,0.2c0.2,0,0.4,0.1,0.6,0.1s0.5,0,0.7,0c0.4,0,0.7-0.2,0.7-0.5
		c0-0.1-0.1-0.2-0.2-0.4c-0.1-0.1-0.3-0.3-0.5-0.4c-0.2-0.2-0.4-0.3-0.7-0.5c-0.2-0.2-0.5-0.4-0.7-0.7c-0.2-0.2-0.4-0.5-0.5-0.8
		s-0.2-0.7-0.2-1.1s0.1-0.8,0.2-1.2c0.2-0.3,0.4-0.6,0.7-0.9c0.3-0.2,0.6-0.4,1-0.5s0.8-0.2,1.2-0.2c0.2,0,0.5,0,0.7,0
		s0.4,0,0.6,0.1c0.2,0,0.4,0.1,0.6,0.1v2.7c-0.1,0-0.2,0-0.3,0c-0.1,0-0.2,0-0.3,0c-0.1,0-0.2,0-0.3,0c-0.1,0-0.1,0-0.2,0
		s-0.2,0-0.2,0c-0.1,0-0.1,0.1-0.2,0.1s-0.1,0.1-0.1,0.2s0.1,0.2,0.2,0.3c0.1,0.1,0.3,0.2,0.5,0.4c0.2,0.2,0.4,0.3,0.6,0.5
		s0.4,0.4,0.6,0.7c0.2,0.3,0.3,0.5,0.5,0.9c0.1,0.3,0.2,0.7,0.2,1.1s-0.1,0.8-0.2,1.2c-0.1,0.4-0.3,0.7-0.6,1
		c-0.3,0.3-0.6,0.5-1.1,0.6c-0.4,0.2-1,0.2-1.6,0.2c-0.4,0-0.7,0-1,0s-0.6-0.1-0.8-0.1c-0.3,0-0.5-0.1-0.8-0.2v-2.9L241.6,254.9
		L241.6,254.9z M242.8,256.6c0.1,0,0.3,0.1,0.4,0.1s0.3,0,0.4,0s0.3,0,0.4,0c0.3,0,0.5,0,0.8-0.1s0.5-0.2,0.7-0.3
		c0.2-0.1,0.4-0.3,0.5-0.5s0.2-0.5,0.2-0.8s-0.1-0.5-0.2-0.8c-0.1-0.2-0.3-0.5-0.5-0.7s-0.4-0.4-0.7-0.7c-0.2-0.2-0.5-0.4-0.7-0.6
		s-0.4-0.4-0.5-0.6s-0.2-0.4-0.2-0.7c0-0.3,0.1-0.6,0.3-0.8c0.2-0.2,0.6-0.3,1.1-0.3c0.1,0,0.2,0,0.2,0c0.1,0,0.2,0,0.2,0
		c0.1,0,0.2,0,0.2,0v-0.4c-0.1,0-0.1,0-0.2,0s-0.1,0-0.2,0s-0.2,0-0.2,0c-0.5,0-0.9,0.1-1.3,0.3c-0.3,0.2-0.5,0.6-0.5,1.1
		c0,0.3,0.1,0.5,0.2,0.7s0.3,0.5,0.5,0.7s0.4,0.4,0.7,0.6s0.5,0.4,0.7,0.6s0.4,0.4,0.5,0.7c0.1,0.2,0.2,0.5,0.2,0.7
		c0,0.5-0.2,0.8-0.5,1s-0.7,0.4-1.3,0.4c-0.3,0-0.6,0-0.9-0.1c-0.1,0-0.3,0-0.4-0.1L242.8,256.6L242.8,256.6z"/>
	<path class="st0" d="M248.3,248.4h3v3.2h1.7v-3.2h3v9.5h-3v-3.5h-1.7v3.5h-3V248.4z M250.1,256.7v-3.6h4.2v3.6h0.4v-7.2h-0.4v3.3
		h-4.2v-3.3h-0.4v7.2H250.1z"/>
	<path class="st0" d="M259.9,248.4h2.3l3.6,9.5h-3l-0.3-0.9h-2.9l-0.3,0.9h-3L259.9,248.4z M258.4,256.7l0.3-0.7h4.7l0.3,0.7h0.4
		l-2.7-7.2h-0.5l-2.7,7.2H258.4z M261,249.9l2.2,5.8h-4.4L261,249.9z M261.7,254.9l-0.6-1.7l-0.6,1.7H261.7z"/>
	<path class="st0" d="M266,248.4h3.2v7h2.6v2.5H266V248.4z M271,256.7v-0.3h-3.2v-6.9h-0.4v7.2L271,256.7L271,256.7z"/>
	<path class="st0" d="M272.3,248.4h3.2v7h2.6v2.5h-5.8L272.3,248.4L272.3,248.4z M277.2,256.7v-0.3H274v-6.9h-0.4v7.2L277.2,256.7
		L277.2,256.7z"/>
	<path class="st0" d="M281.4,248.4h3v3.2h1.7v-3.2h3v9.5h-3v-3.5h-1.7v3.5h-3V248.4z M283.2,256.7v-3.6h4.2v3.6h0.4v-7.2h-0.4v3.3
		h-4.2v-3.3h-0.4v7.2H283.2z"/>
	<path class="st0" d="M293,248.4h2.3l3.6,9.5h-3l-0.3-0.9h-2.9l-0.3,0.9h-3L293,248.4z M291.5,256.7l0.3-0.7h4.7l0.3,0.7h0.4
		l-2.7-7.2H294l-2.7,7.2H291.5z M294.1,249.9l2.2,5.8h-4.4L294.1,249.9z M294.8,254.9l-0.6-1.7l-0.6,1.7H294.8z"/>
	<path class="st0" d="M299.9,248.4l1.6,4.1l1.6-4.1h3.3l-3.7,9.5h-2.5l-3.7-9.5H299.9z M301.7,256.7l2.8-7.2h-0.4l-2.6,6.6l-2.6-6.6
		h-0.4l2.8,7.2H301.7z"/>
	<path class="st0" d="M306.7,248.4h5.6v2.5h-2.6v1.1h2.5v2.4h-2.5v1.1h2.7v2.5h-5.7V248.4z M311.3,256.7v-0.3h-2.8v-3.1h2.7V253
		h-2.7v-3.1h2.8v-0.3h-3.2v7.2h3.2V256.7z"/>
	<path class="st0" d="M317.3,250.9h-1.8v-2.5h6.6v2.5h-1.8v7h-3.1L317.3,250.9L317.3,250.9z M319.1,256.7v-6.9h2v-0.3h-4.4v0.3h2
		v6.9H319.1z"/>
	<path class="st0" d="M322.7,248.4h3v3.2h1.7v-3.2h3v9.5h-3v-3.5h-1.7v3.5h-3V248.4z M324.5,256.7v-3.6h4.2v3.6h0.4v-7.2h-0.4v3.3
		h-4.2v-3.3h-0.4v7.2H324.5z"/>
	<path class="st0" d="M331.5,248.4h5.6v2.5h-2.6v1.1h2.5v2.4h-2.5v1.1h2.7v2.5h-5.7V248.4z M336.1,256.7v-0.3h-2.8v-3.1h2.7V253
		h-2.7v-3.1h2.8v-0.3h-3.2v7.2h3.2V256.7z"/>
	<path class="st0" d="M340.9,248.4h3.3c0.6,0,1.2,0.1,1.7,0.2c0.5,0.2,1,0.4,1.3,0.7c0.4,0.3,0.7,0.7,0.9,1.2s0.3,1,0.3,1.6
		c0,0.5-0.1,0.9-0.2,1.2c-0.1,0.3-0.3,0.6-0.4,0.8c-0.2,0.2-0.4,0.5-0.6,0.6l1.8,3.1h-3.6l-1.4-2.4v2.4h-3L340.9,248.4L340.9,248.4z
		 M343.9,254.6c0.4,0,0.7,0,1.1-0.1l1.4,2.3h0.4l-1.4-2.4c0.5-0.2,0.9-0.5,1.2-0.8c0.3-0.4,0.5-0.9,0.5-1.5c0-0.4-0.1-0.8-0.2-1.1
		c-0.2-0.3-0.4-0.6-0.7-0.8c-0.3-0.2-0.6-0.4-1-0.5s-0.8-0.2-1.2-0.2h-1.5v7.2h0.4v-2.2h1V254.6z M342.7,254.2v-4.4h1.2
		c0.9,0,1.5,0.2,2,0.6s0.7,0.9,0.7,1.6s-0.2,1.2-0.7,1.6s-1.2,0.6-2,0.6L342.7,254.2L342.7,254.2z M343.9,253.1h0.2
		c0.4,0,0.7-0.1,0.9-0.2c0.3-0.2,0.4-0.4,0.4-0.8s-0.1-0.7-0.4-0.8c-0.3-0.2-0.6-0.2-0.9-0.2h-0.2V253.1z"/>
	<path class="st0" d="M349.2,248.4h3.2v9.5h-3.2V248.4z M351,256.7v-7.2h-0.4v7.2H351z"/>
	<path class="st0" d="M359.5,251.6c-0.2-0.2-0.4-0.3-0.6-0.3c-0.3-0.1-0.5-0.1-0.8-0.1s-0.5,0-0.8,0.1c-0.2,0.1-0.4,0.2-0.6,0.4
		c-0.2,0.2-0.3,0.4-0.4,0.6c-0.1,0.2-0.1,0.5-0.1,0.8s0.1,0.6,0.2,0.8c0.1,0.2,0.2,0.5,0.4,0.6c0.2,0.2,0.4,0.3,0.6,0.4
		c0.2,0.1,0.5,0.1,0.8,0.1s0.6-0.1,0.9-0.2c0.3-0.1,0.5-0.3,0.7-0.6h-0.9v-2h3.7v3.2c-0.2,0.4-0.5,0.7-0.8,1.1
		c-0.3,0.3-0.6,0.6-1,0.8c-0.4,0.2-0.8,0.4-1.2,0.5s-0.9,0.2-1.4,0.2c-0.7,0-1.3-0.1-1.9-0.4c-0.6-0.3-1.1-0.6-1.6-1.1
		c-0.5-0.4-0.8-1-1.1-1.6s-0.4-1.3-0.4-2s0.1-1.3,0.4-1.9c0.2-0.6,0.6-1.1,1-1.6s0.9-0.8,1.5-1.1c0.6-0.3,1.2-0.4,1.9-0.4
		c0.5,0,1,0.1,1.4,0.2s0.7,0.2,1,0.4c0.3,0.2,0.6,0.3,0.8,0.5L359.5,251.6z M359.6,249.8c-0.1-0.1-0.3-0.1-0.4-0.1
		c-0.1,0-0.3-0.1-0.5-0.1s-0.4,0-0.6,0c-0.5,0-1,0.1-1.4,0.3c-0.4,0.2-0.8,0.4-1.1,0.7c-0.3,0.3-0.6,0.7-0.8,1.1s-0.3,0.9-0.3,1.5
		c0,0.5,0.1,1,0.3,1.5c0.2,0.4,0.5,0.8,0.8,1.1c0.3,0.3,0.7,0.6,1.2,0.7c0.4,0.2,0.9,0.3,1.4,0.3c0.7,0,1.2-0.2,1.8-0.5
		c0.5-0.3,1-0.7,1.3-1.2v-1.9h-1.5v0.3h1.1v1.4c-0.3,0.4-0.7,0.8-1.1,1c-0.5,0.3-1,0.4-1.6,0.4c-0.5,0-0.9-0.1-1.3-0.2
		c-0.4-0.2-0.7-0.4-1-0.7c-0.3-0.3-0.5-0.6-0.7-1s-0.3-0.8-0.3-1.3s0.1-0.9,0.2-1.3s0.4-0.8,0.7-1c0.3-0.3,0.6-0.5,1-0.7
		s0.8-0.2,1.3-0.2c0.2,0,0.3,0,0.5,0s0.3,0.1,0.4,0.1c0.1,0,0.3,0.1,0.4,0.1L359.6,249.8z"/>
	<path class="st0" d="M363.3,248.4h3v3.2h1.7v-3.2h3v9.5h-3v-3.5h-1.7v3.5h-3V248.4z M365.1,256.7v-3.6h4.2v3.6h0.4v-7.2h-0.4v3.3
		h-4.2v-3.3h-0.4v7.2H365.1z"/>
	<path class="st0" d="M373.4,250.9h-1.8v-2.5h6.6v2.5h-1.8v7h-3.1L373.4,250.9L373.4,250.9z M375.1,256.7v-6.9h2v-0.3h-4.4v0.3h2
		v6.9H375.1z"/>
	<path class="st0" d="M382.9,250.9h-1.8v-2.5h6.6v2.5H386v7h-3.1V250.9z M384.6,256.7v-6.9h2v-0.3h-4.4v0.3h2v6.9H384.6z"/>
	<path class="st0" d="M388,253.1c0-0.7,0.1-1.3,0.4-1.9c0.3-0.6,0.6-1.1,1.1-1.6s1-0.8,1.6-1.1c0.6-0.3,1.3-0.4,1.9-0.4
		c0.7,0,1.3,0.1,1.9,0.4c0.6,0.3,1.1,0.6,1.6,1.1s0.8,1,1.1,1.6s0.4,1.3,0.4,1.9c0,0.7-0.1,1.3-0.4,1.9c-0.3,0.6-0.6,1.1-1.1,1.6
		s-1,0.8-1.6,1.1c-0.6,0.3-1.3,0.4-1.9,0.4c-0.7,0-1.3-0.1-1.9-0.4c-0.6-0.3-1.1-0.6-1.6-1.1s-0.8-1-1.1-1.6
		C388.2,254.5,388,253.8,388,253.1z M389.4,253.1c0,0.5,0.1,1,0.3,1.4s0.5,0.8,0.8,1.2c0.3,0.3,0.7,0.6,1.2,0.8
		c0.4,0.2,0.9,0.3,1.4,0.3s1-0.1,1.4-0.3c0.4-0.2,0.8-0.5,1.2-0.8c0.3-0.3,0.6-0.7,0.8-1.2c0.2-0.4,0.3-0.9,0.3-1.4s-0.1-1-0.3-1.4
		s-0.5-0.8-0.8-1.2s-0.7-0.6-1.2-0.8c-0.4-0.2-0.9-0.3-1.4-0.3s-1,0.1-1.4,0.3c-0.4,0.2-0.8,0.5-1.2,0.8s-0.6,0.7-0.8,1.2
		S389.4,252.6,389.4,253.1z M393,256.4c-0.5,0-0.9-0.1-1.3-0.3c-0.4-0.2-0.7-0.4-1-0.7c-0.3-0.3-0.5-0.6-0.7-1s-0.3-0.8-0.3-1.3
		s0.1-0.9,0.3-1.3s0.4-0.7,0.7-1s0.6-0.5,1-0.7s0.8-0.3,1.3-0.3s0.9,0.1,1.3,0.3c0.4,0.2,0.7,0.4,1,0.7c0.3,0.3,0.5,0.6,0.7,1
		s0.3,0.8,0.3,1.3s-0.1,0.9-0.3,1.3s-0.4,0.7-0.7,1s-0.6,0.5-1,0.7C393.9,256.3,393.5,256.4,393,256.4z M391,253.1
		c0,0.3,0.1,0.5,0.2,0.8c0.1,0.2,0.2,0.5,0.4,0.6c0.2,0.2,0.4,0.3,0.6,0.4c0.2,0.1,0.5,0.2,0.8,0.2s0.5-0.1,0.8-0.2
		c0.2-0.1,0.5-0.2,0.6-0.4c0.2-0.2,0.3-0.4,0.4-0.6c0.1-0.2,0.2-0.5,0.2-0.8s-0.1-0.5-0.2-0.8c-0.1-0.2-0.2-0.5-0.4-0.6
		c-0.2-0.2-0.4-0.3-0.6-0.4c-0.2-0.1-0.5-0.2-0.8-0.2s-0.5,0.1-0.8,0.2c-0.2,0.1-0.5,0.2-0.6,0.4c-0.2,0.2-0.3,0.4-0.4,0.6
		C391.1,252.6,391,252.9,391,253.1z"/>
	<path class="st0" d="M401.6,248.4h2.5l2.5,3.6l2.5-3.6h2.5v9.5h-3v-3.4l-1.9,2.8l-2-2.8v3.4h-3L401.6,248.4L401.6,248.4z
		 M403.4,256.7v-6.5l3.2,4.6l3.2-4.6v6.5h0.4v-7.2h-0.4l-3.2,4.7l-3.2-4.7H403v7.2H403.4z"/>
	<path class="st0" d="M415.4,248.4h2.3l3.6,9.5h-3L418,257h-2.9l-0.3,0.9h-3L415.4,248.4z M413.9,256.7l0.3-0.7h4.7l0.3,0.7h0.4
		l-2.7-7.2h-0.5l-2.7,7.2H413.9z M416.6,249.9l2.2,5.8h-4.4L416.6,249.9z M417.2,254.9l-0.6-1.7l-0.6,1.7H417.2z"/>
	<path class="st0" d="M421.5,248.4h3.2v9.5h-3.2V248.4z M423.3,256.7v-7.2h-0.4v7.2H423.3z"/>
	<path class="st0" d="M425.7,248.4h2.5l2.6,3.7v-3.7h3v9.5h-2.5l-2.6-3.6v3.6h-3V248.4z M427.4,256.7v-6.6l4.7,6.6h0.4v-7.2h-0.4
		v6.6l-4.7-6.6H427v7.2H427.4z"/>
	<path class="st0" d="M436.1,250.9h-1.8v-2.5h6.6v2.5h-1.8v7H436L436.1,250.9L436.1,250.9z M437.8,256.7v-6.9h2v-0.3h-4.4v0.3h2v6.9
		H437.8z"/>
	<path class="st0" d="M444.3,248.4h2.3l3.6,9.5h-3l-0.3-0.9H444l-0.3,0.9h-3L444.3,248.4z M442.8,256.7l0.3-0.7h4.7l0.3,0.7h0.4
		l-2.7-7.2h-0.5l-2.7,7.2H442.8z M445.4,249.9l2.2,5.8h-4.4L445.4,249.9z M446.1,254.9l-0.6-1.7l-0.6,1.7H446.1z"/>
	<path class="st0" d="M450.4,248.4h3.2v9.5h-3.2V248.4z M452.2,256.7v-7.2h-0.4v7.2H452.2z"/>
	<path class="st0" d="M454.6,248.4h2.5l2.6,3.7v-3.7h3v9.5h-2.5l-2.6-3.6v3.6h-3V248.4z M456.3,256.7v-6.6l4.7,6.6h0.4v-7.2H461v6.6
		l-4.7-6.6h-0.4v7.2H456.3z"/>
	<path class="st0" d="M467.8,250.9H466v-2.5h6.6v2.5h-1.8v7h-3.1L467.8,250.9L467.8,250.9z M469.5,256.7v-6.9h2v-0.3h-4.4v0.3h2v6.9
		H469.5z"/>
	<path class="st0" d="M473.2,248.4h3v3.2h1.7v-3.2h3v9.5h-3v-3.5h-1.7v3.5h-3V248.4z M475,256.7v-3.6h4.2v3.6h0.4v-7.2h-0.4v3.3H475
		v-3.3h-0.4v7.2H475z"/>
	<path class="st0" d="M482,248.4h5.6v2.5H485v1.1h2.5v2.4H485v1.1h2.7v2.5H482V248.4z M486.6,256.7v-0.3h-2.8v-3.1h2.7V253h-2.7
		v-3.1h2.8v-0.3h-3.2v7.2h3.2V256.7z"/>
	<path class="st0" d="M491.4,248.4h3.7c0.5,0,0.9,0.1,1.3,0.2c0.4,0.1,0.7,0.3,1,0.5s0.5,0.5,0.7,0.8s0.2,0.7,0.2,1.1
		c0,0.3,0,0.6-0.1,0.8c-0.1,0.2-0.2,0.4-0.2,0.5c-0.1,0.2-0.2,0.3-0.4,0.4c0.2,0.1,0.4,0.3,0.6,0.5c0.1,0.2,0.3,0.4,0.4,0.7
		c0.1,0.3,0.2,0.6,0.2,1c0,0.5-0.1,0.9-0.2,1.2c-0.2,0.4-0.4,0.7-0.7,0.9c-0.3,0.3-0.7,0.5-1.1,0.6c-0.4,0.1-0.9,0.2-1.4,0.2h-3.9
		L491.4,248.4L491.4,248.4z M494.8,256.7c0.8,0,1.5-0.2,1.9-0.5c0.4-0.4,0.6-0.8,0.6-1.4c0-0.4-0.1-0.7-0.2-0.9
		c-0.2-0.2-0.3-0.4-0.5-0.5c-0.2-0.2-0.5-0.3-0.8-0.3c0.2-0.1,0.4-0.2,0.6-0.3c0.2-0.1,0.3-0.3,0.4-0.5c0.1-0.2,0.2-0.5,0.2-0.8
		c0-0.6-0.2-1-0.6-1.4c-0.4-0.3-0.9-0.5-1.6-0.5h-2.1v7.2h2.1L494.8,256.7L494.8,256.7z M493.2,252.8v-2.9h1.7
		c0.6,0,1.1,0.1,1.3,0.4c0.3,0.3,0.4,0.6,0.4,1.1s-0.1,0.8-0.4,1.1c-0.3,0.3-0.7,0.4-1.3,0.4h-1.7V252.8z M493.2,256.4v-3.3h1.7
		c0.3,0,0.6,0,0.8,0.1c0.3,0.1,0.5,0.2,0.7,0.3c0.2,0.1,0.3,0.3,0.4,0.5c0.1,0.2,0.2,0.5,0.2,0.7c0,0.6-0.2,1-0.6,1.3
		s-0.9,0.4-1.5,0.4H493.2z M495.4,251.3c0-0.4-0.2-0.7-0.7-0.7h-0.3v1.3h0.3C495.1,251.9,495.4,251.7,495.4,251.3z M494.6,255.7
		c0.7,0,1.1-0.3,1.1-0.8c0-0.6-0.4-0.8-1.1-0.8h-0.3v1.7h0.3V255.7z"/>
	<path class="st0" d="M499.4,248.4h5.6v2.5h-2.6v1.1h2.5v2.4h-2.5v1.1h2.7v2.5h-5.7V248.4z M504,256.7v-0.3h-2.8v-3.1h2.7V253h-2.7
		v-3.1h2.8v-0.3h-3.2v7.2h3.2V256.7z"/>
	<path class="st0" d="M505.7,254.9c0.2,0.1,0.4,0.1,0.7,0.2c0.2,0,0.4,0.1,0.6,0.1c0.2,0,0.5,0,0.7,0c0.4,0,0.7-0.2,0.7-0.5
		c0-0.1-0.1-0.2-0.2-0.4c-0.1-0.1-0.3-0.3-0.5-0.4c-0.2-0.2-0.4-0.3-0.7-0.5c-0.2-0.2-0.5-0.4-0.7-0.7c-0.2-0.2-0.4-0.5-0.5-0.8
		s-0.2-0.7-0.2-1.1s0.1-0.8,0.2-1.2c0.2-0.3,0.4-0.6,0.7-0.9c0.3-0.2,0.6-0.4,1-0.5s0.8-0.2,1.2-0.2c0.2,0,0.5,0,0.7,0
		s0.4,0,0.6,0.1c0.2,0,0.4,0.1,0.6,0.1v2.7c-0.1,0-0.2,0-0.3,0s-0.2,0-0.3,0s-0.2,0-0.3,0s-0.1,0-0.2,0c-0.1,0-0.2,0-0.2,0
		c-0.1,0-0.1,0.1-0.2,0.1c-0.1,0-0.1,0.1-0.1,0.2s0.1,0.2,0.2,0.3c0.1,0.1,0.3,0.2,0.5,0.4c0.2,0.2,0.4,0.3,0.6,0.5
		c0.2,0.2,0.4,0.4,0.6,0.7c0.2,0.3,0.3,0.5,0.5,0.9c0.1,0.3,0.2,0.7,0.2,1.1s-0.1,0.8-0.2,1.2c-0.1,0.4-0.3,0.7-0.6,1
		s-0.6,0.5-1.1,0.6c-0.4,0.2-1,0.2-1.6,0.2c-0.4,0-0.7,0-1,0s-0.6-0.1-0.8-0.1c-0.3,0-0.5-0.1-0.8-0.2v-2.9L505.7,254.9L505.7,254.9
		z M506.8,256.6c0.1,0,0.3,0.1,0.4,0.1c0.1,0,0.3,0,0.4,0c0.1,0,0.3,0,0.4,0c0.3,0,0.5,0,0.8-0.1s0.5-0.2,0.7-0.3
		c0.2-0.1,0.4-0.3,0.5-0.5s0.2-0.5,0.2-0.8s-0.1-0.5-0.2-0.8c-0.1-0.2-0.3-0.5-0.5-0.7s-0.4-0.4-0.7-0.7c-0.2-0.2-0.5-0.4-0.7-0.6
		s-0.4-0.4-0.5-0.6s-0.2-0.4-0.2-0.7c0-0.3,0.1-0.6,0.3-0.8s0.6-0.3,1.1-0.3c0.1,0,0.2,0,0.2,0c0.1,0,0.2,0,0.2,0c0.1,0,0.2,0,0.2,0
		v-0.4c-0.1,0-0.1,0-0.2,0c-0.1,0-0.1,0-0.2,0c-0.1,0-0.2,0-0.2,0c-0.5,0-0.9,0.1-1.3,0.3c-0.3,0.2-0.5,0.6-0.5,1.1
		c0,0.3,0.1,0.5,0.2,0.7c0.1,0.2,0.3,0.5,0.5,0.7s0.4,0.4,0.7,0.6c0.2,0.2,0.5,0.4,0.7,0.6s0.4,0.4,0.5,0.7c0.1,0.2,0.2,0.5,0.2,0.7
		c0,0.5-0.2,0.8-0.5,1s-0.7,0.4-1.3,0.4c-0.3,0-0.6,0-0.9-0.1c-0.1,0-0.3,0-0.4-0.1L506.8,256.6L506.8,256.6z"/>
	<path class="st0" d="M513.6,250.9h-1.8v-2.5h6.6v2.5h-1.8v7h-3.1L513.6,250.9L513.6,250.9z M515.3,256.7v-6.9h2v-0.3h-4.4v0.3h2
		v6.9H515.3z"/>
	<path class="st0" d="M521.6,254.9c0.2,0.1,0.4,0.1,0.7,0.2c0.2,0,0.4,0.1,0.6,0.1c0.2,0,0.5,0,0.7,0c0.4,0,0.7-0.2,0.7-0.5
		c0-0.1-0.1-0.2-0.2-0.4c-0.1-0.1-0.3-0.3-0.5-0.4c-0.2-0.2-0.4-0.3-0.7-0.5c-0.2-0.2-0.5-0.4-0.7-0.7c-0.2-0.2-0.4-0.5-0.5-0.8
		s-0.2-0.7-0.2-1.1s0.1-0.8,0.2-1.2c0.2-0.3,0.4-0.6,0.7-0.9c0.3-0.2,0.6-0.4,1-0.5s0.8-0.2,1.2-0.2c0.2,0,0.5,0,0.7,0
		s0.4,0,0.6,0.1c0.2,0,0.4,0.1,0.6,0.1v2.7c-0.1,0-0.2,0-0.3,0s-0.2,0-0.3,0s-0.2,0-0.3,0s-0.1,0-0.2,0c-0.1,0-0.2,0-0.2,0
		c-0.1,0-0.1,0.1-0.2,0.1c-0.1,0-0.1,0.1-0.1,0.2s0.1,0.2,0.2,0.3c0.1,0.1,0.3,0.2,0.5,0.4c0.2,0.2,0.4,0.3,0.6,0.5
		c0.2,0.2,0.4,0.4,0.6,0.7c0.2,0.3,0.3,0.5,0.5,0.9c0.1,0.3,0.2,0.7,0.2,1.1s-0.1,0.8-0.2,1.2c-0.1,0.4-0.3,0.7-0.6,1
		s-0.6,0.5-1.1,0.6c-0.4,0.2-1,0.2-1.6,0.2c-0.4,0-0.7,0-1,0s-0.6-0.1-0.8-0.1c-0.3,0-0.5-0.1-0.8-0.2v-2.9L521.6,254.9L521.6,254.9
		z M522.7,256.6c0.1,0,0.3,0.1,0.4,0.1c0.1,0,0.3,0,0.4,0s0.3,0,0.4,0c0.3,0,0.5,0,0.8-0.1s0.5-0.2,0.7-0.3c0.2-0.1,0.4-0.3,0.5-0.5
		s0.2-0.5,0.2-0.8s-0.1-0.5-0.2-0.8c-0.1-0.2-0.3-0.5-0.5-0.7s-0.4-0.4-0.7-0.7c-0.2-0.2-0.5-0.4-0.7-0.6s-0.4-0.4-0.5-0.6
		s-0.2-0.4-0.2-0.7c0-0.3,0.1-0.6,0.3-0.8s0.6-0.3,1.1-0.3c0.1,0,0.2,0,0.2,0c0.1,0,0.2,0,0.2,0c0.1,0,0.2,0,0.2,0v-0.4
		c-0.1,0-0.1,0-0.2,0c-0.1,0-0.1,0-0.2,0c-0.1,0-0.2,0-0.2,0c-0.5,0-0.9,0.1-1.3,0.3c-0.3,0.2-0.5,0.6-0.5,1.1
		c0,0.3,0.1,0.5,0.2,0.7c0.1,0.2,0.3,0.5,0.5,0.7s0.4,0.4,0.7,0.6c0.2,0.2,0.5,0.4,0.7,0.6s0.4,0.4,0.5,0.7c0.1,0.2,0.2,0.5,0.2,0.7
		c0,0.5-0.2,0.8-0.5,1s-0.7,0.4-1.3,0.4c-0.3,0-0.6,0-0.9-0.1c-0.1,0-0.3,0-0.4-0.1L522.7,256.6L522.7,256.6z"/>
	<path class="st0" d="M529.5,250.9h-1.8v-2.5h6.6v2.5h-1.8v7h-3.1L529.5,250.9L529.5,250.9z M531.2,256.7v-6.9h2v-0.3h-4.4v0.3h2
		v6.9H531.2z"/>
	<path class="st0" d="M537.7,248.4h2.3l3.6,9.5h-3l-0.3-0.9h-2.9l-0.3,0.9h-3L537.7,248.4z M536.2,256.7l0.3-0.7h4.7l0.3,0.7h0.4
		l-2.7-7.2h-0.5l-2.7,7.2H536.2z M538.8,249.9l2.2,5.8h-4.4L538.8,249.9z M539.5,254.9l-0.6-1.7l-0.6,1.7H539.5z"/>
	<path class="st0" d="M543.8,248.4h2.5l2.6,3.7v-3.7h3v9.5h-2.5l-2.6-3.6v3.6h-3V248.4z M545.5,256.7v-6.6l4.7,6.6h0.4v-7.2h-0.4
		v6.6l-4.7-6.6h-0.4v7.2H545.5z"/>
	<path class="st0" d="M552.9,257.9v-9.5h2.6c0.9,0,1.7,0.1,2.4,0.3c0.7,0.2,1.3,0.5,1.8,0.9s0.8,0.9,1.1,1.5s0.4,1.3,0.4,2.1
		c0,0.8-0.1,1.5-0.4,2.1c-0.3,0.6-0.6,1.1-1.1,1.5s-1.1,0.7-1.8,0.9c-0.7,0.2-1.5,0.3-2.4,0.3L552.9,257.9L552.9,257.9z
		 M554.3,256.7h1.2c1.4,0,2.4-0.3,3.1-0.9c0.7-0.6,1.1-1.5,1.1-2.7c0-1.1-0.4-2-1.1-2.7c-0.7-0.6-1.8-0.9-3.1-0.9h-1.2V256.7z
		 M554.7,256.4v-6.5h0.8c1.2,0,2.1,0.3,2.8,0.8s1,1.4,1,2.4c0,1.1-0.3,1.9-1,2.5s-1.6,0.8-2.8,0.8L554.7,256.4L554.7,256.4z
		 M555.9,255.2c0.7,0,1.3-0.2,1.7-0.5s0.6-0.9,0.6-1.5c0-0.7-0.2-1.2-0.6-1.5c-0.4-0.3-0.9-0.5-1.7-0.5V255.2z"/>
	<path class="st0" d="M564.7,248.4h2.3l3.6,9.5h-3l-0.3-0.9h-2.9l-0.3,0.9h-3L564.7,248.4z M563.3,256.7l0.3-0.7h4.7l0.3,0.7h0.4
		l-2.7-7.2h-0.5l-2.7,7.2H563.3z M565.9,249.9l2.2,5.8h-4.4L565.9,249.9z M566.5,254.9l-0.6-1.7l-0.6,1.7H566.5z"/>
	<path class="st0" d="M570.8,248.4h3.3c0.6,0,1.2,0.1,1.7,0.2c0.5,0.2,1,0.4,1.3,0.7c0.4,0.3,0.7,0.7,0.9,1.2s0.3,1,0.3,1.6
		c0,0.5-0.1,0.9-0.2,1.2c-0.1,0.3-0.3,0.6-0.4,0.8c-0.2,0.2-0.4,0.5-0.6,0.6l1.8,3.1h-3.6l-1.4-2.4v2.4h-3L570.8,248.4L570.8,248.4z
		 M573.8,254.6c0.4,0,0.7,0,1.1-0.1l1.4,2.3h0.4l-1.4-2.4c0.5-0.2,0.9-0.5,1.2-0.8c0.3-0.4,0.5-0.9,0.5-1.5c0-0.4-0.1-0.8-0.2-1.1
		c-0.2-0.3-0.4-0.6-0.7-0.8c-0.3-0.2-0.6-0.4-1-0.5s-0.8-0.2-1.2-0.2h-1.5v7.2h0.4v-2.2h1V254.6z M572.6,254.2v-4.4h1.2
		c0.9,0,1.5,0.2,2,0.6s0.7,0.9,0.7,1.6s-0.2,1.2-0.7,1.6s-1.2,0.6-2,0.6L572.6,254.2L572.6,254.2z M573.9,253.1h0.2
		c0.4,0,0.7-0.1,0.9-0.2c0.3-0.2,0.4-0.4,0.4-0.8s-0.1-0.7-0.4-0.8c-0.3-0.2-0.6-0.2-0.9-0.2h-0.2V253.1z"/>
	<path class="st0" d="M579.1,257.9v-9.5h2.6c0.9,0,1.7,0.1,2.4,0.3c0.7,0.2,1.3,0.5,1.8,0.9s0.8,0.9,1.1,1.5s0.4,1.3,0.4,2.1
		c0,0.8-0.1,1.5-0.4,2.1c-0.3,0.6-0.6,1.1-1.1,1.5s-1.1,0.7-1.8,0.9c-0.7,0.2-1.5,0.3-2.4,0.3L579.1,257.9L579.1,257.9z
		 M580.6,256.7h1.2c1.4,0,2.4-0.3,3.1-0.9c0.7-0.6,1.1-1.5,1.1-2.7c0-1.1-0.4-2-1.1-2.7c-0.7-0.6-1.8-0.9-3.1-0.9h-1.2V256.7z
		 M580.9,256.4v-6.5h0.8c1.2,0,2.1,0.3,2.8,0.8s1,1.4,1,2.4c0,1.1-0.3,1.9-1,2.5s-1.6,0.8-2.8,0.8L580.9,256.4L580.9,256.4z
		 M582.2,255.2c0.7,0,1.3-0.2,1.7-0.5s0.6-0.9,0.6-1.5c0-0.7-0.2-1.2-0.6-1.5c-0.4-0.3-0.9-0.5-1.7-0.5V255.2z"/>
	<path class="st0" d="M587.9,254.9c0.2,0.1,0.4,0.1,0.7,0.2c0.2,0,0.4,0.1,0.6,0.1c0.2,0,0.5,0,0.7,0c0.4,0,0.7-0.2,0.7-0.5
		c0-0.1-0.1-0.2-0.2-0.4c-0.1-0.1-0.3-0.3-0.5-0.4c-0.2-0.2-0.4-0.3-0.7-0.5c-0.2-0.2-0.5-0.4-0.7-0.7c-0.2-0.2-0.4-0.5-0.5-0.8
		s-0.2-0.7-0.2-1.1s0.1-0.8,0.2-1.2c0.2-0.3,0.4-0.6,0.7-0.9c0.3-0.2,0.6-0.4,1-0.5s0.8-0.2,1.2-0.2c0.2,0,0.5,0,0.7,0
		s0.4,0,0.6,0.1c0.2,0,0.4,0.1,0.6,0.1v2.7c-0.1,0-0.2,0-0.3,0s-0.2,0-0.3,0s-0.2,0-0.3,0s-0.1,0-0.2,0c-0.1,0-0.2,0-0.2,0
		c-0.1,0-0.1,0.1-0.2,0.1c-0.1,0-0.1,0.1-0.1,0.2s0.1,0.2,0.2,0.3c0.1,0.1,0.3,0.2,0.5,0.4c0.2,0.2,0.4,0.3,0.6,0.5
		c0.2,0.2,0.4,0.4,0.6,0.7c0.2,0.3,0.3,0.5,0.5,0.9c0.1,0.3,0.2,0.7,0.2,1.1s-0.1,0.8-0.2,1.2c-0.1,0.4-0.3,0.7-0.6,1
		s-0.6,0.5-1.1,0.6c-0.4,0.2-1,0.2-1.6,0.2c-0.4,0-0.7,0-1,0s-0.6-0.1-0.8-0.1c-0.3,0-0.5-0.1-0.8-0.2v-2.9L587.9,254.9L587.9,254.9
		z M589.1,256.6c0.1,0,0.3,0.1,0.4,0.1c0.1,0,0.3,0,0.4,0c0.1,0,0.3,0,0.4,0c0.3,0,0.5,0,0.8-0.1s0.5-0.2,0.7-0.3
		c0.2-0.1,0.4-0.3,0.5-0.5s0.2-0.5,0.2-0.8s-0.1-0.5-0.2-0.8c-0.1-0.2-0.3-0.5-0.5-0.7s-0.4-0.4-0.7-0.7c-0.2-0.2-0.5-0.4-0.7-0.6
		s-0.4-0.4-0.5-0.6s-0.2-0.4-0.2-0.7c0-0.3,0.1-0.6,0.3-0.8s0.6-0.3,1.1-0.3c0.1,0,0.2,0,0.2,0c0.1,0,0.2,0,0.2,0c0.1,0,0.2,0,0.2,0
		v-0.4c-0.1,0-0.1,0-0.2,0c-0.1,0-0.1,0-0.2,0c-0.1,0-0.2,0-0.2,0c-0.5,0-0.9,0.1-1.3,0.3c-0.3,0.2-0.5,0.6-0.5,1.1
		c0,0.3,0.1,0.5,0.2,0.7c0.1,0.2,0.3,0.5,0.5,0.7s0.4,0.4,0.7,0.6c0.2,0.2,0.5,0.4,0.7,0.6s0.4,0.4,0.5,0.7c0.1,0.2,0.2,0.5,0.2,0.7
		c0,0.5-0.2,0.8-0.5,1s-0.7,0.4-1.3,0.4c-0.3,0-0.6,0-0.9-0.1c-0.1,0-0.3,0-0.4-0.1L589.1,256.6L589.1,256.6z"/>
	<path class="st0" d="M230.6,270.2c0-0.7,0.1-1.3,0.4-1.9s0.6-1.1,1.1-1.6s1-0.8,1.6-1.1c0.6-0.3,1.3-0.4,1.9-0.4
		c0.7,0,1.3,0.1,1.9,0.4s1.1,0.6,1.6,1.1s0.8,1,1.1,1.6c0.3,0.6,0.4,1.3,0.4,1.9c0,0.7-0.1,1.3-0.4,1.9s-0.6,1.1-1.1,1.6
		s-1,0.8-1.6,1.1c-0.6,0.3-1.3,0.4-1.9,0.4c-0.7,0-1.3-0.1-1.9-0.4s-1.1-0.6-1.6-1.1s-0.8-1-1.1-1.6
		C230.7,271.6,230.6,270.9,230.6,270.2z M231.9,270.2c0,0.5,0.1,1,0.3,1.4c0.2,0.4,0.5,0.8,0.8,1.2c0.3,0.3,0.7,0.6,1.2,0.8
		c0.4,0.2,0.9,0.3,1.4,0.3s1-0.1,1.4-0.3c0.4-0.2,0.8-0.5,1.2-0.8c0.3-0.3,0.6-0.7,0.8-1.2c0.2-0.4,0.3-0.9,0.3-1.4s-0.1-1-0.3-1.4
		c-0.2-0.4-0.5-0.8-0.8-1.2c-0.3-0.3-0.7-0.6-1.2-0.8c-0.4-0.2-0.9-0.3-1.4-0.3s-1,0.1-1.4,0.3c-0.4,0.2-0.8,0.5-1.2,0.8
		c-0.3,0.3-0.6,0.7-0.8,1.2C232,269.3,231.9,269.7,231.9,270.2z M235.6,273.5c-0.5,0-0.9-0.1-1.3-0.3c-0.4-0.2-0.7-0.4-1-0.7
		c-0.3-0.3-0.5-0.6-0.7-1s-0.3-0.8-0.3-1.3s0.1-0.9,0.3-1.3c0.2-0.4,0.4-0.7,0.7-1c0.3-0.3,0.6-0.5,1-0.7s0.8-0.3,1.3-0.3
		s0.9,0.1,1.3,0.3c0.4,0.2,0.7,0.4,1,0.7c0.3,0.3,0.5,0.6,0.7,1s0.3,0.8,0.3,1.3s-0.1,0.9-0.3,1.3c-0.2,0.4-0.4,0.7-0.7,1
		c-0.3,0.3-0.6,0.5-1,0.7C236.4,273.4,236,273.5,235.6,273.5z M233.6,270.2c0,0.3,0.1,0.5,0.2,0.8c0.1,0.2,0.2,0.5,0.4,0.6
		c0.2,0.2,0.4,0.3,0.6,0.4s0.5,0.2,0.8,0.2s0.5-0.1,0.8-0.2c0.2-0.1,0.5-0.2,0.6-0.4c0.2-0.2,0.3-0.4,0.4-0.6s0.2-0.5,0.2-0.8
		s-0.1-0.5-0.2-0.8c-0.1-0.2-0.2-0.5-0.4-0.6c-0.2-0.2-0.4-0.3-0.6-0.4s-0.5-0.2-0.8-0.2s-0.5,0.1-0.8,0.2c-0.2,0.1-0.5,0.2-0.6,0.4
		c-0.2,0.2-0.3,0.4-0.4,0.6C233.6,269.7,233.6,270,233.6,270.2z"/>
	<path class="st0" d="M241.3,265.5h5.6v2.5h-2.6v1.1h2.5v2.4h-2.5v3.6h-3V265.5z M243.1,273.8v-3.5h2.7V270h-2.7v-3h2.8v-0.3h-3.2
		v7.2h0.4L243.1,273.8L243.1,273.8z"/>
	<path class="st0" d="M249.8,265.5h3.2l1.1,3.3l1.1-3.3h2.1l1.1,3.3l1.1-3.3h3.2l-3.1,9.5h-2.4l-1-2.9l-1,2.9h-2.4L249.8,265.5z
		 M254.3,273.8l1.9-6l1.9,6h0.4l2.4-7.2h-0.4l-2.2,6.6l-2.1-6.6l-2.1,6.6l-2.2-6.6h-0.4l2.4,7.2H254.3z"/>
	<path class="st0" d="M262.9,265.5h3v3.2h1.7v-3.2h3v9.5h-3v-3.5h-1.7v3.5h-3V265.5z M264.7,273.8v-3.6h4.2v3.6h0.4v-7.2h-0.4v3.3
		h-4.2v-3.3h-0.4v7.2H264.7z"/>
	<path class="st0" d="M271.5,270.2c0-0.7,0.1-1.3,0.4-1.9s0.6-1.1,1.1-1.6s1-0.8,1.6-1.1c0.6-0.3,1.3-0.4,1.9-0.4
		c0.7,0,1.3,0.1,1.9,0.4s1.1,0.6,1.6,1.1s0.8,1,1.1,1.6c0.3,0.6,0.4,1.3,0.4,1.9c0,0.7-0.1,1.3-0.4,1.9s-0.6,1.1-1.1,1.6
		s-1,0.8-1.6,1.1c-0.6,0.3-1.3,0.4-1.9,0.4c-0.7,0-1.3-0.1-1.9-0.4s-1.1-0.6-1.6-1.1s-0.8-1-1.1-1.6
		C271.6,271.6,271.5,270.9,271.5,270.2z M272.8,270.2c0,0.5,0.1,1,0.3,1.4c0.2,0.4,0.5,0.8,0.8,1.2c0.3,0.3,0.7,0.6,1.2,0.8
		c0.4,0.2,0.9,0.3,1.4,0.3s1-0.1,1.4-0.3c0.4-0.2,0.8-0.5,1.2-0.8c0.3-0.3,0.6-0.7,0.8-1.2c0.2-0.4,0.3-0.9,0.3-1.4s-0.1-1-0.3-1.4
		c-0.2-0.4-0.5-0.8-0.8-1.2c-0.3-0.3-0.7-0.6-1.2-0.8c-0.4-0.2-0.9-0.3-1.4-0.3s-1,0.1-1.4,0.3c-0.4,0.2-0.8,0.5-1.2,0.8
		c-0.3,0.3-0.6,0.7-0.8,1.2C272.9,269.3,272.8,269.7,272.8,270.2z M276.5,273.5c-0.5,0-0.9-0.1-1.3-0.3c-0.4-0.2-0.7-0.4-1-0.7
		c-0.3-0.3-0.5-0.6-0.7-1s-0.3-0.8-0.3-1.3s0.1-0.9,0.3-1.3c0.2-0.4,0.4-0.7,0.7-1c0.3-0.3,0.6-0.5,1-0.7s0.8-0.3,1.3-0.3
		s0.9,0.1,1.3,0.3c0.4,0.2,0.7,0.4,1,0.7c0.3,0.3,0.5,0.6,0.7,1s0.3,0.8,0.3,1.3s-0.1,0.9-0.3,1.3c-0.2,0.4-0.4,0.7-0.7,1
		c-0.3,0.3-0.6,0.5-1,0.7C277.3,273.4,276.9,273.5,276.5,273.5z M274.5,270.2c0,0.3,0.1,0.5,0.2,0.8c0.1,0.2,0.2,0.5,0.4,0.6
		c0.2,0.2,0.4,0.3,0.6,0.4s0.5,0.2,0.8,0.2s0.5-0.1,0.8-0.2c0.2-0.1,0.5-0.2,0.6-0.4c0.2-0.2,0.3-0.4,0.4-0.6s0.2-0.5,0.2-0.8
		s-0.1-0.5-0.2-0.8c-0.1-0.2-0.2-0.5-0.4-0.6c-0.2-0.2-0.4-0.3-0.6-0.4s-0.5-0.2-0.8-0.2s-0.5,0.1-0.8,0.2c-0.2,0.1-0.5,0.2-0.6,0.4
		c-0.2,0.2-0.3,0.4-0.4,0.6C274.5,269.7,274.5,270,274.5,270.2z"/>
	<path class="st0" d="M282.2,265.5h3.2v7h2.6v2.5h-5.8L282.2,265.5L282.2,265.5z M287.2,273.8v-0.3H284v-6.9h-0.4v7.2L287.2,273.8
		L287.2,273.8z"/>
	<path class="st0" d="M288.5,265.5h5.6v2.5h-2.6v1.1h2.5v2.4h-2.5v1.1h2.7v2.5h-5.7V265.5z M293.2,273.8v-0.3h-2.8v-3.1h2.7V270
		h-2.7v-3h2.8v-0.3H290v7.2h3.2V273.8z"/>
	<path class="st0" d="M294.8,272c0.2,0.1,0.4,0.1,0.7,0.2c0.2,0,0.4,0.1,0.6,0.1s0.5,0,0.7,0c0.4,0,0.7-0.2,0.7-0.5
		c0-0.1-0.1-0.2-0.2-0.4c-0.1-0.1-0.3-0.3-0.5-0.4c-0.2-0.2-0.4-0.3-0.7-0.5c-0.2-0.2-0.5-0.4-0.7-0.7c-0.2-0.2-0.4-0.5-0.5-0.8
		s-0.2-0.7-0.2-1.1s0.1-0.8,0.2-1.2c0.2-0.3,0.4-0.6,0.7-0.9c0.3-0.2,0.6-0.4,1-0.5s0.8-0.2,1.2-0.2c0.2,0,0.5,0,0.7,0
		s0.4,0,0.6,0.1c0.2,0,0.4,0.1,0.6,0.1v2.7c-0.1,0-0.2,0-0.3,0c-0.1,0-0.2,0-0.3,0c-0.1,0-0.2,0-0.3,0c-0.1,0-0.1,0-0.2,0
		s-0.2,0-0.2,0c-0.1,0-0.1,0.1-0.2,0.1s-0.1,0.1-0.1,0.2s0.1,0.2,0.2,0.3c0.1,0.1,0.3,0.2,0.5,0.4c0.2,0.2,0.4,0.3,0.6,0.5
		s0.4,0.4,0.6,0.7c0.2,0.3,0.3,0.5,0.5,0.9c0.1,0.3,0.2,0.7,0.2,1.1s-0.1,0.8-0.2,1.2c-0.1,0.4-0.3,0.7-0.6,1
		c-0.3,0.3-0.6,0.5-1.1,0.6c-0.4,0.2-1,0.2-1.6,0.2c-0.4,0-0.7,0-1,0s-0.6-0.1-0.8-0.1c-0.3,0-0.5-0.1-0.8-0.2V272H294.8z
		 M296,273.7c0.1,0,0.3,0.1,0.4,0.1s0.3,0,0.4,0s0.3,0,0.4,0c0.3,0,0.5,0,0.8-0.1s0.5-0.2,0.7-0.3c0.2-0.1,0.4-0.3,0.5-0.5
		s0.2-0.5,0.2-0.8s-0.1-0.5-0.2-0.8c-0.1-0.2-0.3-0.5-0.5-0.7s-0.4-0.4-0.7-0.7c-0.2-0.2-0.5-0.4-0.7-0.6s-0.4-0.4-0.5-0.6
		s-0.2-0.4-0.2-0.7c0-0.3,0.1-0.6,0.3-0.8c0.2-0.2,0.6-0.3,1.1-0.3c0.1,0,0.2,0,0.2,0c0.1,0,0.2,0,0.2,0c0.1,0,0.2,0,0.2,0v-0.4
		c-0.1,0-0.1,0-0.2,0s-0.1,0-0.2,0s-0.2,0-0.2,0c-0.5,0-0.9,0.1-1.3,0.3c-0.3,0.2-0.5,0.6-0.5,1.1c0,0.3,0.1,0.5,0.2,0.7
		s0.3,0.5,0.5,0.7s0.4,0.4,0.7,0.6s0.5,0.4,0.7,0.6s0.4,0.4,0.5,0.7c0.1,0.2,0.2,0.5,0.2,0.7c0,0.5-0.2,0.8-0.5,1s-0.7,0.4-1.3,0.4
		c-0.3,0-0.6,0-0.9-0.1c-0.1,0-0.3,0-0.4-0.1L296,273.7L296,273.7z"/>
	<path class="st0" d="M301.3,270.2c0-0.7,0.1-1.3,0.4-1.9s0.6-1.1,1.1-1.6s1-0.8,1.6-1.1c0.6-0.3,1.3-0.4,1.9-0.4s1.3,0.1,1.9,0.4
		s1.1,0.6,1.6,1.1s0.8,1,1.1,1.6c0.3,0.6,0.4,1.3,0.4,1.9c0,0.7-0.1,1.3-0.4,1.9s-0.6,1.1-1.1,1.6s-1,0.8-1.6,1.1
		c-0.6,0.3-1.3,0.4-1.9,0.4s-1.3-0.1-1.9-0.4s-1.1-0.6-1.6-1.1s-0.8-1-1.1-1.6C301.4,271.6,301.3,270.9,301.3,270.2z M302.6,270.2
		c0,0.5,0.1,1,0.3,1.4c0.2,0.4,0.5,0.8,0.8,1.2c0.3,0.3,0.7,0.6,1.2,0.8c0.4,0.2,0.9,0.3,1.4,0.3s1-0.1,1.4-0.3
		c0.4-0.2,0.8-0.5,1.2-0.8c0.3-0.3,0.6-0.7,0.8-1.2c0.2-0.4,0.3-0.9,0.3-1.4s-0.1-1-0.3-1.4c-0.2-0.4-0.5-0.8-0.8-1.2
		c-0.3-0.3-0.7-0.6-1.2-0.8c-0.4-0.2-0.9-0.3-1.4-0.3s-1,0.1-1.4,0.3c-0.4,0.2-0.8,0.5-1.2,0.8c-0.3,0.3-0.6,0.7-0.8,1.2
		C302.7,269.3,302.6,269.7,302.6,270.2z M306.2,273.5c-0.5,0-0.9-0.1-1.3-0.3c-0.4-0.2-0.7-0.4-1-0.7c-0.3-0.3-0.5-0.6-0.7-1
		s-0.3-0.8-0.3-1.3s0.1-0.9,0.3-1.3c0.2-0.4,0.4-0.7,0.7-1c0.3-0.3,0.6-0.5,1-0.7s0.8-0.3,1.3-0.3s0.9,0.1,1.3,0.3
		c0.4,0.2,0.7,0.4,1,0.7c0.3,0.3,0.5,0.6,0.7,1s0.3,0.8,0.3,1.3s-0.1,0.9-0.3,1.3c-0.2,0.4-0.4,0.7-0.7,1c-0.3,0.3-0.6,0.5-1,0.7
		C307.1,273.4,306.7,273.5,306.2,273.5z M304.3,270.2c0,0.3,0.1,0.5,0.2,0.8c0.1,0.2,0.2,0.5,0.4,0.6c0.2,0.2,0.4,0.3,0.6,0.4
		s0.5,0.2,0.8,0.2s0.5-0.1,0.8-0.2c0.2-0.1,0.5-0.2,0.6-0.4c0.2-0.2,0.3-0.4,0.4-0.6s0.2-0.5,0.2-0.8s-0.1-0.5-0.2-0.8
		c-0.1-0.2-0.2-0.5-0.4-0.6c-0.2-0.2-0.4-0.3-0.6-0.4s-0.5-0.2-0.8-0.2s-0.5,0.1-0.8,0.2c-0.2,0.1-0.5,0.2-0.6,0.4
		c-0.2,0.2-0.3,0.4-0.4,0.6C304.3,269.7,304.3,270,304.3,270.2z"/>
	<path class="st0" d="M312,265.5h2.5l2.5,3.6l2.5-3.6h2.5v9.5h-3v-3.4l-1.9,2.8l-2-2.8v3.4h-3v-9.5H312z M313.8,273.8v-6.5l3.2,4.6
		l3.2-4.6v6.5h0.4v-7.2h-0.4l-3.2,4.7l-3.2-4.7h-0.4v7.2H313.8z"/>
	<path class="st0" d="M323,265.5h5.6v2.5H326v1.1h2.5v2.4H326v1.1h2.7v2.5H323V265.5z M327.6,273.8v-0.3h-2.8v-3.1h2.7V270h-2.7v-3
		h2.8v-0.3h-3.2v7.2h3.2V273.8z"/>
	<path class="st0" d="M335.2,265.5h2.3l3.6,9.5h-3l-0.3-0.9h-2.9l-0.3,0.9h-3L335.2,265.5z M333.7,273.8l0.3-0.7h4.7l0.3,0.7h0.4
		l-2.7-7.2h-0.5l-2.7,7.2H333.7z M336.3,267l2.2,5.8h-4.4L336.3,267z M337,272l-0.6-1.7l-0.6,1.7H337z"/>
	<path class="st0" d="M341.3,265.5h2.5l2.6,3.7v-3.7h3v9.5h-2.5l-2.6-3.6v3.6h-3V265.5z M343,273.8v-6.6l4.7,6.6h0.4v-7.2h-0.4v6.6
		l-4.7-6.6h-0.4v7.2H343z"/>
	<path class="st0" d="M350.4,275v-9.5h2.6c0.9,0,1.7,0.1,2.4,0.3c0.7,0.2,1.3,0.5,1.8,0.9s0.8,0.9,1.1,1.5s0.4,1.3,0.4,2.1
		c0,0.8-0.1,1.5-0.4,2.1c-0.3,0.6-0.6,1.1-1.1,1.5s-1.1,0.7-1.8,0.9c-0.7,0.2-1.5,0.3-2.4,0.3L350.4,275L350.4,275z M351.8,273.8
		h1.2c1.4,0,2.4-0.3,3.1-0.9c0.7-0.6,1.1-1.5,1.1-2.7c0-1.1-0.4-2-1.1-2.7c-0.7-0.6-1.8-0.9-3.1-0.9h-1.2V273.8z M352.2,273.5V267
		h0.8c1.2,0,2.1,0.3,2.8,0.8s1,1.4,1,2.4c0,1.1-0.3,1.9-1,2.5s-1.6,0.8-2.8,0.8L352.2,273.5L352.2,273.5z M353.4,272.3
		c0.7,0,1.3-0.2,1.7-0.5s0.6-0.9,0.6-1.5c0-0.7-0.2-1.2-0.6-1.5c-0.4-0.3-0.9-0.5-1.7-0.5V272.3z"/>
	<path class="st0" d="M362.1,270.2c0-0.8,0.1-1.4,0.4-2.1c0.3-0.6,0.6-1.1,1.1-1.6c0.5-0.4,1-0.8,1.6-1s1.3-0.3,1.9-0.3
		c0.5,0,1,0.1,1.4,0.2s0.8,0.2,1.1,0.4c0.4,0.2,0.7,0.3,0.9,0.5l-1.5,2.6c-0.2-0.1-0.3-0.2-0.5-0.3c-0.2-0.1-0.4-0.1-0.6-0.2
		c-0.2-0.1-0.5-0.1-0.8-0.1s-0.6,0.1-0.8,0.2s-0.5,0.2-0.6,0.4c-0.2,0.2-0.3,0.4-0.4,0.6c-0.1,0.2-0.2,0.5-0.2,0.8s0.1,0.5,0.2,0.8
		c0.1,0.2,0.3,0.5,0.4,0.6c0.2,0.2,0.4,0.3,0.7,0.4s0.5,0.2,0.8,0.2s0.6,0,0.8-0.1s0.4-0.2,0.6-0.3c0.2-0.1,0.4-0.2,0.5-0.4l1.5,2.6
		c-0.3,0.2-0.6,0.4-0.9,0.6c-0.3,0.1-0.7,0.3-1.1,0.4c-0.4,0.1-0.9,0.2-1.5,0.2c-0.7,0-1.4-0.1-2.1-0.4c-0.6-0.2-1.2-0.6-1.6-1
		c-0.5-0.4-0.8-1-1.1-1.6C362.2,271.7,362.1,271,362.1,270.2z M363.9,270.2c0-0.5,0.1-0.9,0.2-1.3c0.2-0.4,0.4-0.7,0.7-1
		s0.6-0.5,1-0.7s0.9-0.3,1.4-0.3c0.2,0,0.5,0,0.7,0s0.4,0.1,0.5,0.1c0.2,0,0.3,0.1,0.4,0.2l0.2-0.3c-0.2-0.1-0.3-0.1-0.5-0.2
		c-0.2,0-0.3-0.1-0.6-0.1c-0.2,0-0.5-0.1-0.7-0.1c-0.5,0-0.9,0.1-1.4,0.3c-0.4,0.2-0.8,0.4-1.2,0.7c-0.3,0.3-0.6,0.7-0.8,1.2
		s-0.3,1-0.3,1.5c0,0.6,0.1,1.1,0.3,1.5s0.5,0.8,0.8,1.1c0.3,0.3,0.7,0.6,1.2,0.7c0.5,0.2,0.9,0.3,1.5,0.3c0.3,0,0.5,0,0.8-0.1
		c0.2,0,0.4-0.1,0.6-0.2c0.2-0.1,0.3-0.1,0.5-0.2L369,273c-0.1,0.1-0.3,0.2-0.4,0.2c-0.1,0.1-0.3,0.1-0.5,0.1s-0.4,0.1-0.7,0.1
		c-0.5,0-1-0.1-1.4-0.3c-0.4-0.2-0.8-0.4-1.1-0.7c-0.3-0.3-0.5-0.6-0.7-1C363.9,271.1,363.9,270.7,363.9,270.2z"/>
	<path class="st0" d="M374.9,275.2c-0.6,0-1.1-0.1-1.6-0.2c-0.5-0.2-0.9-0.4-1.2-0.7c-0.3-0.3-0.6-0.7-0.8-1.2s-0.3-1-0.3-1.6v-6h3
		v5.9c0,0.3,0.1,0.6,0.2,0.8c0.1,0.2,0.4,0.3,0.7,0.3s0.6-0.1,0.7-0.3c0.1-0.2,0.2-0.4,0.2-0.8v-5.9h3v6c0,0.6-0.1,1.2-0.3,1.6
		c-0.2,0.5-0.5,0.9-0.8,1.2c-0.3,0.3-0.8,0.5-1.2,0.7C376.1,275.2,375.5,275.2,374.9,275.2z M374.9,273.5c-1.4,0-2.1-0.7-2.1-2.1
		v-4.8h-0.4v4.8c0,0.8,0.2,1.4,0.6,1.8c0.4,0.4,1.1,0.6,1.9,0.6c0.8,0,1.4-0.2,1.9-0.6c0.4-0.4,0.7-1,0.7-1.8v-4.8h-0.4v4.8
		C377.1,272.8,376.3,273.5,374.9,273.5z"/>
	<path class="st0" d="M379.8,265.5h3.2v7h2.6v2.5h-5.8V265.5z M384.8,273.8v-0.3h-3.2v-6.9h-0.4v7.2L384.8,273.8L384.8,273.8z"/>
	<path class="st0" d="M387.4,268h-1.8v-2.5h6.6v2.5h-1.8v7h-3.1L387.4,268L387.4,268z M389.1,273.8V267h2v-0.3h-4.4v0.3h2v6.9h0.4
		V273.8z"/>
	<path class="st0" d="M396.6,275.2c-0.6,0-1.1-0.1-1.6-0.2c-0.5-0.2-0.9-0.4-1.2-0.7c-0.3-0.3-0.6-0.7-0.8-1.2s-0.3-1-0.3-1.6v-6h3
		v5.9c0,0.3,0.1,0.6,0.2,0.8c0.1,0.2,0.4,0.3,0.7,0.3s0.6-0.1,0.7-0.3c0.1-0.2,0.2-0.4,0.2-0.8v-5.9h3v6c0,0.6-0.1,1.2-0.3,1.6
		c-0.2,0.5-0.5,0.9-0.8,1.2c-0.3,0.3-0.8,0.5-1.2,0.7C397.8,275.2,397.2,275.2,396.6,275.2z M396.6,273.5c-1.4,0-2.1-0.7-2.1-2.1
		v-4.8h-0.4v4.8c0,0.8,0.2,1.4,0.6,1.8c0.4,0.4,1.1,0.6,1.9,0.6c0.8,0,1.4-0.2,1.9-0.6c0.4-0.4,0.7-1,0.7-1.8v-4.8h-0.4v4.8
		C398.8,272.8,398.1,273.5,396.6,273.5z"/>
	<path class="st0" d="M401.5,265.5h3.3c0.6,0,1.2,0.1,1.7,0.2c0.5,0.2,1,0.4,1.3,0.7c0.4,0.3,0.7,0.7,0.9,1.2s0.3,1,0.3,1.6
		c0,0.5-0.1,0.9-0.2,1.2c-0.1,0.3-0.3,0.6-0.4,0.8c-0.2,0.2-0.4,0.5-0.6,0.6l1.8,3.1H406l-1.4-2.4v2.4h-3L401.5,265.5L401.5,265.5z
		 M404.5,271.7c0.4,0,0.7,0,1.1-0.1l1.4,2.3h0.4l-1.4-2.4c0.5-0.2,0.9-0.5,1.2-0.8c0.3-0.4,0.5-0.9,0.5-1.5c0-0.4-0.1-0.8-0.2-1.1
		c-0.2-0.3-0.4-0.6-0.7-0.8c-0.3-0.2-0.6-0.4-1-0.5s-0.8-0.2-1.2-0.2H403v7.2h0.4v-2.2h1.1V271.7z M403.3,271.3V267h1.2
		c0.9,0,1.5,0.2,2,0.6s0.7,0.9,0.7,1.6s-0.2,1.2-0.7,1.6s-1.2,0.6-2,0.6h-1.2V271.3z M404.6,270.2h0.2c0.4,0,0.7-0.1,0.9-0.2
		c0.3-0.2,0.4-0.4,0.4-0.8s-0.1-0.7-0.4-0.8c-0.3-0.2-0.6-0.2-0.9-0.2h-0.2V270.2z"/>
	<path class="st0" d="M409.8,265.5h5.6v2.5h-2.6v1.1h2.5v2.4h-2.5v1.1h2.7v2.5h-5.7V265.5z M414.5,273.8v-0.3h-2.8v-3.1h2.7V270
		h-2.7v-3h2.8v-0.3h-3.2v7.2h3.2V273.8z"/>
	<path class="st0" d="M416.4,275v-9.5h2.6c0.9,0,1.7,0.1,2.4,0.3c0.7,0.2,1.3,0.5,1.8,0.9s0.8,0.9,1.1,1.5s0.4,1.3,0.4,2.1
		c0,0.8-0.1,1.5-0.4,2.1c-0.3,0.6-0.6,1.1-1.1,1.5s-1.1,0.7-1.8,0.9c-0.7,0.2-1.5,0.3-2.4,0.3L416.4,275L416.4,275z M417.8,273.8
		h1.2c1.4,0,2.4-0.3,3.1-0.9c0.7-0.6,1.1-1.5,1.1-2.7c0-1.1-0.4-2-1.1-2.7c-0.7-0.6-1.8-0.9-3.1-0.9h-1.2V273.8z M418.2,273.5V267
		h0.8c1.2,0,2.1,0.3,2.8,0.8s1,1.4,1,2.4c0,1.1-0.3,1.9-1,2.5s-1.6,0.8-2.8,0.8L418.2,273.5L418.2,273.5z M419.4,272.3
		c0.7,0,1.3-0.2,1.7-0.5s0.6-0.9,0.6-1.5c0-0.7-0.2-1.2-0.6-1.5c-0.4-0.3-0.9-0.5-1.7-0.5V272.3z"/>
	<path class="st0" d="M428.3,265.5h3.2v7h2.6v2.5h-5.8V265.5z M433.3,273.8v-0.3h-3.2v-6.9h-0.4v7.2L433.3,273.8L433.3,273.8z"/>
	<path class="st0" d="M434.6,265.5h3.2v9.5h-3.2V265.5z M436.4,273.8v-7.2H436v7.2H436.4z"/>
	<path class="st0" d="M441.3,265.5l1.6,4.1l1.6-4.1h3.3l-3.7,9.5h-2.5l-3.7-9.5H441.3z M443.1,273.8l2.8-7.2h-0.4l-2.6,6.6l-2.6-6.6
		H440l2.8,7.2H443.1z"/>
	<path class="st0" d="M448.1,265.5h3.2v9.5h-3.2V265.5z M449.9,273.8v-7.2h-0.4v7.2H449.9z"/>
	<path class="st0" d="M452.3,265.5h2.5l2.6,3.7v-3.7h3v9.5h-2.5l-2.6-3.6v3.6h-3V265.5z M454,273.8v-6.6l4.7,6.6h0.4v-7.2h-0.4v6.6
		l-4.7-6.6h-0.4v7.2H454z"/>
	<path class="st0" d="M467.5,268.7c-0.2-0.2-0.4-0.3-0.6-0.3c-0.3-0.1-0.5-0.1-0.8-0.1s-0.5,0-0.8,0.1c-0.2,0.1-0.4,0.2-0.6,0.4
		c-0.2,0.2-0.3,0.4-0.4,0.6c-0.1,0.2-0.1,0.5-0.1,0.8s0.1,0.6,0.2,0.8c0.1,0.2,0.2,0.5,0.4,0.6c0.2,0.2,0.4,0.3,0.6,0.4
		c0.2,0.1,0.5,0.1,0.8,0.1s0.6-0.1,0.9-0.2c0.3-0.1,0.5-0.3,0.7-0.6h-0.9v-2h3.7v3.2c-0.2,0.4-0.5,0.7-0.8,1.1
		c-0.3,0.3-0.6,0.6-1,0.8c-0.4,0.2-0.8,0.4-1.2,0.5s-0.9,0.2-1.4,0.2c-0.7,0-1.3-0.1-1.9-0.4c-0.6-0.3-1.1-0.6-1.6-1.1
		c-0.5-0.4-0.8-1-1.1-1.6s-0.4-1.3-0.4-2s0.1-1.3,0.4-1.9c0.2-0.6,0.6-1.1,1-1.6s0.9-0.8,1.5-1.1c0.6-0.3,1.2-0.4,1.9-0.4
		c0.5,0,1,0.1,1.4,0.2s0.7,0.2,1,0.4c0.3,0.2,0.6,0.3,0.8,0.5L467.5,268.7z M467.6,266.9c-0.1-0.1-0.3-0.1-0.4-0.1
		c-0.1,0-0.3-0.1-0.5-0.1s-0.4,0-0.6,0c-0.5,0-1,0.1-1.4,0.3c-0.4,0.2-0.8,0.4-1.1,0.7c-0.3,0.3-0.6,0.7-0.8,1.1s-0.3,0.9-0.3,1.5
		c0,0.5,0.1,1,0.3,1.5c0.2,0.4,0.5,0.8,0.8,1.1c0.3,0.3,0.7,0.6,1.2,0.7c0.4,0.2,0.9,0.3,1.4,0.3c0.7,0,1.2-0.2,1.8-0.5
		c0.5-0.3,1-0.7,1.3-1.2v-1.9h-1.5v0.3h1.1v1.4c-0.3,0.4-0.7,0.8-1.1,1c-0.5,0.3-1,0.4-1.6,0.4c-0.5,0-0.9-0.1-1.3-0.2
		c-0.4-0.2-0.7-0.4-1-0.7c-0.3-0.3-0.5-0.6-0.7-1s-0.3-0.8-0.3-1.3s0.1-0.9,0.2-1.3s0.4-0.8,0.7-1c0.3-0.3,0.6-0.5,1-0.7
		s0.8-0.2,1.3-0.2c0.2,0,0.3,0,0.5,0s0.3,0.1,0.4,0.1c0.1,0,0.3,0.1,0.4,0.1L467.6,266.9z"/>
	<path class="st0" d="M471.3,272.6h3v2.4h-3V272.6z M473.5,274v-0.3h-1.3v0.3H473.5z"/>
</g>
<polygon class="st1" points="284.9,2762.6 281.2,2762.6 281.2,2762.6 "/>
<path class="st0" d="M170.3,71.3l12,4l1,5C178.3,79.3,170.3,72.3,170.3,71.3z"/>
<path class="st0" d="M215.3,60.3l11,7v5C220.3,71.3,215.3,61.3,215.3,60.3z"/>
<g id="SIGNPAINTLABEL_1_">
	<polygon class="st1" points="1117.4,1972.5 1113.7,1972.5 1113.7,1972.5 	"/>
</g>
</svg>
